<?xml version="1.0"?>
<svg xmlns="http://www.w3.org/2000/svg" id="Credit_card" data-name="Credit card" viewBox="0 0 512 512" width="512" height="512"><path d="M440,289.61V144a40.045,40.045,0,0,0-40-40H48A40.045,40.045,0,0,0,8,144V336a40.045,40.045,0,0,0,40,40H344.4A80,80,0,1,0,440,289.61ZM24,160H424v32H24Zm24-40H400a24.027,24.027,0,0,1,24,24H24A24.027,24.027,0,0,1,48,120ZM24,336V208H424v80a80.11,80.11,0,0,0-79.6,72H48A24.027,24.027,0,0,1,24,336Zm400,96a64,64,0,1,1,64-64A64.072,64.072,0,0,1,424,432Z"/><path d="M136,224H48a8,8,0,0,0-8,8v40a8,8,0,0,0,8,8h88a8,8,0,0,0,8-8V232A8,8,0,0,0,136,224Zm-8,40H56V240h72Z"/><path d="M136,288H48a8,8,0,0,0,0,16h88a8,8,0,0,0,0-16Z"/><path d="M88,312H48a8,8,0,0,0,0,16H88a8,8,0,0,0,0-16Z"/><path d="M120,312h-8a8,8,0,0,0,0,16h8a8,8,0,0,0,0-16Z"/><path d="M448,360H432V344a8,8,0,0,0-16,0v16H400a8,8,0,0,0,0,16h16v16a8,8,0,0,0,16,0V376h16a8,8,0,0,0,0-16Z"/></svg>
