<svg xmlns="http://www.w3.org/2000/svg" width="30" height="30" viewBox="0 0 30 30">
  <path fill="#FFB600" d="M1194.345,4003.1a11.285,11.285,0,0,1-3.669-.7,7.868,7.868,0,0,1-4.488-4.492,11.128,11.128,0,0,1-.706-3.668c-.072-1.577-.089-2.1-.089-6.046s.017-4.469.089-6.046a11.134,11.134,0,0,1,.706-3.668,7.856,7.856,0,0,1,4.488-4.489,11.151,11.151,0,0,1,3.669-.7c1.57-.072,2.09-.09,6.048-.09s4.481.018,6.048.09a11.12,11.12,0,0,1,3.67.7,7.471,7.471,0,0,1,2.719,1.77,7.555,7.555,0,0,1,1.772,2.719,11.134,11.134,0,0,1,.706,3.669c.068,1.553.087,2.067.087,6.045s-.019,4.5-.087,6.046a11.128,11.128,0,0,1-.706,3.668,7.866,7.866,0,0,1-4.491,4.492,11.254,11.254,0,0,1-3.67.7c-1.567.072-2.09.089-6.048.089S1195.915,4003.176,1194.345,4003.1Zm.154-26.438a7.666,7.666,0,0,0-2.6.481,4.469,4.469,0,0,0-2.562,2.56,7.729,7.729,0,0,0-.478,2.6c-.07,1.53-.084,1.989-.084,5.891s.014,4.36.084,5.893a7.73,7.73,0,0,0,.478,2.6,4.47,4.47,0,0,0,2.562,2.561,7.706,7.706,0,0,0,2.6.481c1.546.067,2.008.083,5.894.083s4.349-.015,5.892-.083a7.711,7.711,0,0,0,2.6-.481,4.461,4.461,0,0,0,2.563-2.561,7.7,7.7,0,0,0,.477-2.6c.072-1.532.086-1.992.086-5.893s-.014-4.361-.086-5.891a7.715,7.715,0,0,0-.477-2.6,4.46,4.46,0,0,0-2.563-2.56,7.671,7.671,0,0,0-2.6-.481c-1.543-.072-2-.083-5.892-.083S1196.045,3976.594,1194.5,3976.666Zm-1.992,11.529a7.886,7.886,0,1,1,7.886,7.884A7.893,7.893,0,0,1,1192.507,3988.2Zm3.386,0a4.5,4.5,0,1,0,4.5-4.5A4.5,4.5,0,0,0,1195.893,3988.2Zm10.179-7.809a2.128,2.128,0,1,1,2.128,2.128A2.129,2.129,0,0,1,1206.072,3980.386Z" transform="translate(-1185.4 -3973.2)"></path>
</svg>