<svg xmlns="http://www.w3.org/2000/svg" width="134" height="69.946"><g data-name="Logo futer"><path data-name="Union 1" d="M78.035 37.53v-7.082c0-4.741 4.449-6.782 8.029-6.782s8.088 2.041 8.088 6.782v7.082c0 4.741-4.511 6.782-8.088 6.782s-8.029-2.041-8.029-6.782zm4.691-6.662v6.241c0 1.92 1.383 3.031 3.338 3.031 1.984 0 3.368-1.111 3.368-3.031v-6.241c0-1.92-1.384-3.03-3.368-3.03-1.954 0-3.338 1.109-3.338 3.03zM58.639 37.53v-7.082c0-4.741 4.45-6.782 8.03-6.782s8.088 2.041 8.088 6.782v7.082c0 4.741-4.511 6.782-8.088 6.782s-8.03-2.041-8.03-6.782zm4.692-6.662v6.241c0 1.92 1.382 3.031 3.338 3.031 1.984 0 3.367-1.111 3.367-3.031v-6.241c0-1.92-1.383-3.03-3.367-3.03-1.956 0-3.338 1.109-3.338 3.03zM18.975 37.53v-7.082c0-4.711 4.48-6.782 8.059-6.782 3.729 0 7.427 1.89 7.818 5.7 0 .72-.241.87-.933.87h-2.886c-.631 0-.662-.57-.9-.929a3.174 3.174 0 0 0-3.1-1.441c-1.985 0-3.338 1.111-3.338 3v6.241c0 1.92 1.353 3 3.338 3 1.623 0 2.917-.6 3.157-2.04.091-.6.15-1.08.812-1.08h2.948c.661 0 .9.3.9 1.019 0 3.871-4.09 6.3-7.818 6.3-3.576.006-8.057-2.066-8.057-6.776zM0 37.95c0-.69.18-.841.872-.841h2.917c.692 0 1.023.091 1.082.841a2.065 2.065 0 0 0 .571 1.231 3.957 3.957 0 0 0 2.947.989c1.625 0 2.948-.359 2.948-2.039S8.66 36.419 6.1 35.609c-3.033-.961-5.829-2.16-5.829-5.971 0-3.9 3.548-5.821 7.307-5.971 3.819 0 8 1.74 8 5.7 0 .72-.18.841-.873.841h-2.947c-.57 0-.662-.421-.812-.81a2.477 2.477 0 0 0-.632-.9 4.007 4.007 0 0 0-2.556-.81c-.992 0-2.646.39-2.646 1.74 0 1.831 4.421 2.491 5.623 2.971 2.166.659 5.353 1.53 5.353 5.61 0 4.262-3.367 6.3-8 6.3C4.33 44.312 0 42.151 0 37.95zm98.874 5.912c-.691 0-.872-.331-.872-.871v-18c0-.69.331-.87.872-.87h2.977c.541 0 .872.18.872.87v14.668h8.661c.691 0 .872.331.872.871v2.46c0 .539-.18.871-.872.871zm-47.963 0c-.541 0-.872-.18-.872-.871v-6.782h-6.706v6.781c0 .69-.3.871-.872.871h-2.978c-.541 0-.872-.18-.872-.871v-18c0-.69.331-.87.872-.87h2.977c.571 0 .872.18.872.87v6.782h6.706v-6.785c0-.69.331-.87.872-.87h2.977c.541 0 .872.18.872.87v18c0 .69-.331.871-.872.871zM0 13.863V6.782C0 2.071 4.481 0 8.059 0c3.729 0 7.427 1.891 7.818 5.7 0 .721-.241.87-.932.87h-2.886c-.632 0-.662-.57-.9-.929a3.173 3.173 0 0 0-3.1-1.44c-1.985 0-3.338 1.111-3.338 3v6.24c0 1.922 1.353 3 3.338 3 1.624 0 2.917-.6 3.158-2.041.09-.6.151-1.08.812-1.08h2.947c.661 0 .9.3.9 1.02 0 3.871-4.09 6.3-7.818 6.3C4.481 20.645 0 18.574 0 13.863zm59.872 6.331c-.692 0-.872-.331-.872-.87v-18c0-.54.18-.87.872-.87h12.96c.692 0 .872.33.872.87v2.487c0 .54-.18.871-.872.871h-9.081v3.27h8.059c.691 0 .872.331.872.871v2.34c0 .54-.18.87-.872.87h-8.059v3.961h9.593c.691 0 .872.331.872.871v2.46c0 .539-.181.87-.872.87zm-8.18 0a1.629 1.629 0 0 1-1.5-.96s-2.676-4.5-4.3-7.2l-1.864 1.951v5.341c0 .69-.331.87-.842.87h-2.98c-.571 0-.872-.18-.872-.87v-18c0-.69.3-.87.872-.87h2.976c.512 0 .842.18.842.87v6.686l6.224-6.841a1.569 1.569 0 0 1 1.5-.721h4.059c.571 0 .571.57.3.84l-6.76 7.322 6.465 10.623c.241.389.12.96-.45.96zm-18.7 0c-.661 0-.9-.18-1.143-.9L31 16.924h-7.364l-.842 2.371c-.24.72-.482.9-1.143.9h-3.157c-.661 0-.661-.481-.511-.841l6.675-17.973A1.194 1.194 0 0 1 25.892.45h2.887c.662 0 .961.3 1.232.93l6.646 17.973c.149.36.149.841-.512.841zm-7.912-7.471h4.51l-2.255-6.631z" fill="#fff"/><g data-name="Group 161" fill="#ffb600"><path data-name="Path 169" d="M19.99 62.557a3.18 3.18 0 0 0 2.173-1 6.861 6.861 0 0 0 1.405-1.959 6.933 6.933 0 0 0 .8-2.938c0-.911-.486-1.048-.777-1.048a2.694 2.694 0 0 0-1.839 1.175 9.013 9.013 0 0 0-.393.472 23.628 23.628 0 0 1 1.213-2.255 29.125 29.125 0 0 1 2.363-3.414 18.772 18.772 0 0 1 1.251-1.424.385.385 0 0 0 .1-.226c0-.191-.114-.418-.656-.418-.34 0-.706.247-1.131.768-.236.358-.486.718-.742 1.071a40.61 40.61 0 0 0-2.689 4.385 11.548 11.548 0 0 0-1.651 4.75c0 1.05.5 1.271.918 1.271a.253.253 0 0 0 .273-.255.481.481 0 0 0-.215-.339.241.241 0 0 1-.087-.209 5.857 5.857 0 0 1 1.022-2.488c.92-1.534 1.412-1.763 1.624-1.763.078 0 .13.2.13.5a5.219 5.219 0 0 1-.37 1.945 6.62 6.62 0 0 1-1.058 1.8 2.3 2.3 0 0 1-1.661.975 1.219 1.219 0 0 1-.342-.064 1.288 1.288 0 0 0-.343-.079.279.279 0 0 0-.293.3c-.003.467.733.467.975.467z"/><path data-name="Path 170" d="M29.121 61.501a1.385 1.385 0 0 0-.941-.249c.223-.99.43-2.032.618-3.1a14.181 14.181 0 0 0 .264-1.757c0-.153-.093-.336-.535-.336-.5 0-.635.251-.669.423-1.889 3.675-2.431 3.962-2.552 3.962s-.19-.161-.19-.476a3.088 3.088 0 0 1 .481-1.305c.525-.943.525-.947.525-1.009 0-.079-.033-.336-.454-.336-.455 0-.843.379-1.185 1.159a4.206 4.206 0 0 0-.418 1.634c0 1.083.445 1.31.817 1.31a1.611 1.611 0 0 0 1.112-.6 10.564 10.564 0 0 0 1.087-1.456q.22-.339.393-.635a45.588 45.588 0 0 1-.46 2.57 13.237 13.237 0 0 0-4.963 2.076c-2.1 1.355-3.16 2.8-3.16 4.309a2.092 2.092 0 0 0 .714 1.654 2.566 2.566 0 0 0 1.733.61c1.7 0 3.316-1.1 4.794-3.283a15.068 15.068 0 0 0 1.907-4.667c.078 0 .161-.007.246-.007a1.006 1.006 0 0 1 .492.075c.171.107.214.128.272.128.024 0 .234-.008.234-.3a.538.538 0 0 0-.162-.394zm-7.823 3.464a11.564 11.564 0 0 1 2.757-1.838 11.984 11.984 0 0 1 2.866-1.095 13.406 13.406 0 0 1-1.483 4.181 7.962 7.962 0 0 1-1.676 2.088 3.565 3.565 0 0 1-2.323 1.013 1.611 1.611 0 0 1-1.179-.429 1.5 1.5 0 0 1-.44-1.143 3.986 3.986 0 0 1 1.477-2.777z"/><path data-name="Path 171" d="M56.881 56.385c.59.688 1.83-.46 1.122-1.109-.635-.581-1.801.322-1.122 1.109zm-9.084.992c.437-1.547 1.853-6.572 3.949-7.554.036-.017.041-.085.041-.153 0-.166-1.054-.045-1.444 0-1.48.152-1.377 1.272-1.951 2.343a.41.41 0 0 0-.583.092c-.71.956-2.88 3.8-3.727 4.734-4.851-.073-9.187.272-9.618 3.822-.3 2.478 2.509 3.061 4.814 2.056 1.667-.727 3.517-2.846 5.243-4.893.466-.006 1.821.1 2.109.136-.734 3.566-.675 5.1.461 5.107.751 0 1.512-.751 1.133-1.131-.294-.3-.642.077-.742.173-.542.523-.635-.506.112-3.959.332.107.765.4.966.149.428-.546-.468-.814-.766-.92zm-8.216 3.863c-1.49 1.046-4.62 1.334-4.232-.61.62-3.112 5.768-2.744 7.878-2.812a26.252 26.252 0 0 1-3.646 3.422zm7.221-4.133a10.17 10.17 0 0 0-1.537-.229c.235-.309 2.575-3.427 2.575-3.427a34.3 34.3 0 0 0-1.04 3.656zm42.943 4.866c-1.088.026.54-5.406 1.285-6.94 1.054-2.172 1.143-2.777.573-2.778-1.863 0-4.493 3.355-5.937 5.151a17.835 17.835 0 0 1 1.908-5.385c.037-.73-1.7-.624-2.51.461-2.571 3.278-4.893 6.438-7.359 8.386-2.867 2.264-5.9 1.936-5.885.313.012-1.371 1.828-2.716 3.395-3.287 1.349-.491 2.4-.362 2.233-.969-.328-1.2-6.52 1.19-6.55 4.08-.024 2.324 2.833 2.455 4.183 2.173 5.353-1.12 8.431-7.937 10.8-10.329-.183.691-1.137 3.707-1.418 5.039-.549 1.409-1.349 3.1-1.357 3.368a.706.706 0 0 0 1 .578 28.383 28.383 0 0 0 1.518-2.627c.739-1.144 3.851-5.578 4.651-5.728.419-.079-1.683 4.313-1.885 6.887-.171 2.187.6 2.455 1.258 2.4 1.274-.112 1.873-1.094 1.488-1.469-.3-.292-.946.665-1.393.676zm37.436-1.978c-1.076.76-1.631-.7-1.548-1.107.7-.975 1.323-2.917.033-2.5-1.36.44-.931 2.494-.931 2.494-.546 1.065-1.861 2.725-2.463 2.316-.152-.1.007-.857.263-1.406.739-1.588 1.494-1.884.909-2.218-.645-.368-1.524 1.074-1.785 1.4-1.406 1.961-2.394 1.249-2.42 1.291.778-1.271 1.423-4.205-.342-4.4-.614-.069-2.059.731-1.813 2.692a9.911 9.911 0 0 0-.62 1.148c-.563.889-2.207 2.418-2.719 1.79-.643-.792 1.241-3.5 1.293-3.928a.642.642 0 0 0-.389-.61c-.6-.284-.754.569-1.328.718-.342.088-.722-.3-.567-.5a3.023 3.023 0 0 0 .744-1.357c.043-.342-.185-1.138-.688-1.154-.856-.027-.96 2.09-.862 2.442-.938 2.131-2.557 4.169-3.133 4.17-.815 0-.4-3.192.036-3.625.057-.056.32-.053.334-.252.023-.313-.416-.763-1.167-.815-1.127-.077-2.92 1.351-3.627 3.448l.015-.065v-.006.006c-.28.313-1.106 1.209-1.946 1.186-.978-.027-1.367-1.219-1.408-1.62-.019-.179-.112-.66-.391-.606 1.763-1.94 3.361-1.5 3.31-2.37-.019-.3-.263-.485-.744-.344a21.955 21.955 0 0 0-3.791 2.948s.326-.782.445-1.045c3.022-1.975 7.758-6.808 6.122-8.157-1.559-1.286-4.437 2.088-6.855 7.185-.142.3-.4.842-.685 1.455v.006-.01c-.884 1.5-1.92 2.669-2.357 2.67-.816 0-.4-3.192.035-3.625.057-.057.32-.054.335-.252.022-.314-.416-.764-1.167-.816-1.354-.093-3.675 1.984-3.912 4.785a.875.875 0 0 0 .2.524.762.762 0 0 0 .593.227 1.832 1.832 0 0 0 1.244-.652 7.262 7.262 0 0 0 .956-1.257c.008.584.141 1.529.91 1.779a2.159 2.159 0 0 0 2.132-.847 1.306 1.306 0 0 0-.094.668c.216.483 1.2.279 1.241.012a4.1 4.1 0 0 1 1.281-2.16c.807 2.275 1.951 2.547 2.279 2.586.827.1 2-1.12 2-1.12l.011-.051c-.014.1-.031.2-.039.3a.879.879 0 0 0 .194.525.765.765 0 0 0 .593.227 1.83 1.83 0 0 0 1.245-.653 7.285 7.285 0 0 0 .956-1.257c.008.585.141 1.53.91 1.78 1.712.557 3.395-2.409 4.307-3.988a1.171 1.171 0 0 0 .957.473c-1.618 3.34-.064 3.96.593 3.945a2.733 2.733 0 0 0 1.665-.668 5.479 5.479 0 0 0 .556-.522c0 .029-.122 1.062.872 1.088.94.024 1.685-.985 1.978-1.433a2.582 2.582 0 0 0 2.51-.629s-.343 1.727.849 1.756c1.059.026 2.655-2.127 2.655-2.127s.32 1.245 2.012.886zm-21.937-9.226c.981-.1-1.018 3.283-4.818 6.1 1.101-3.149 3.564-5.971 4.814-6.1zm-12.717 10.4c-.638-.181 1.223-3.576 2.573-3.588-.47 1.304-2.119 3.717-2.578 3.586zm12.712.011c-.638-.181 1.223-3.576 2.573-3.588-.47 1.308-2.116 3.717-2.578 3.586zm11.945.284c-.212-.306.288-1.406.425-1.714a3.672 3.672 0 0 0 .768.749c-.107.175-1.022 1.218-1.196.963zm1.5-1.574a2.272 2.272 0 0 1-.677-.976 1.049 1.049 0 0 1 .508-.6c.149-.036.459.071.471-.342.008-.242-.413-.749-1.116-.325.023-.014.135-.994.724-.979.466.012.773 1.84.087 3.217zm-48.225-.471c-.6.547-1.378 1.856-1.955 1.858-.815 0-.4-3.193.036-3.625.057-.057.32-.054.334-.252.023-.314-.416-.764-1.167-.816-1.136-.078-2.951 1.376-3.645 3.5a2.631 2.631 0 0 1-1.763 1.264c-1.311-.017 0-2.573.508-3.415.38-.633-.064-1.13-.58-1.039-.557.1-1.548 1.6-2.582 2.668.44-1.609 1.085-2.636.39-2.667a1.078 1.078 0 0 0-.84.532c-.112.415-.445 2.134-.584 2.4-.174.261-1.361 1.764-2.257 1.763-.624 0-.283-1.277-.118-1.693.446-1.12 1.435-1.829.447-2.355-.419-.222-.9.023-1.614 2.209-.569.618-3.747 4.1-3.725-.016.4-.351 8.509-8.38 5.918-9.906-.907-.535-2.794 1.381-4.467 3.99-1.713 2.671-3.289 5.678-2.086 7.95.648 1.224 2.417.839 4.106-.8 0 0-.169 1.478 1.276 1.428a3.242 3.242 0 0 0 2.039-1.1s-.316.749.266.831c.326.046 1.046-1.635 2.556-3.149-.816 2.94.608 3.157 1.084 3.149a2.781 2.781 0 0 0 1.761-.776v.014a.874.874 0 0 0 .194.524.765.765 0 0 0 .593.227 1.832 1.832 0 0 0 1.245-.652 7.311 7.311 0 0 0 .956-1.257c.007.584.141 1.529.91 1.779 1.712.558 3.08-2.063 3.182-2.321.086-.24-.156-.495-.425-.248zm-13.9-8.812c.612.316-2.187 5.015-5.012 8.073.864-2.715 4.134-8.525 5.003-8.074zm8.37 10.569c-.639-.181 1.223-3.576 2.573-3.588-.474 1.308-2.121 3.717-2.582 3.587zm68.643-1.753c-.6.547-1.378 1.856-1.954 1.857-.816 0-.4-3.192.035-3.625.057-.056.32-.053.335-.252.022-.313-.416-.763-1.167-.815-1.354-.093-3.675 1.983-3.912 4.784a.88.88 0 0 0 .2.525.764.764 0 0 0 .593.227 1.83 1.83 0 0 0 1.244-.653 7.19 7.19 0 0 0 .956-1.257c.008.585.141 1.53.91 1.78 1.713.557 3.08-2.063 3.182-2.321.08-.243-.161-.498-.431-.252zm-5.533 1.757c-.638-.181 1.223-3.576 2.573-3.588-.474 1.308-2.119 3.717-2.582 3.586z"/></g></g></svg>