<svg width="19" height="19" viewBox="0 0 19 19" fill="none" xmlns="http://www.w3.org/2000/svg">
<path d="M7.5 15C3.34615 15 0 11.6539 0 7.50002C0 3.34616 3.34615 0 7.5 0C11.6538 0 15 3.34616 15 7.50002C15 11.6539 11.6538 15 7.5 15ZM7.5 1.15385C3.98077 1.15385 1.15385 3.98078 1.15385 7.50002C1.15385 11.0193 3.98077 13.8462 7.5 13.8462C11.0192 13.8462 13.8462 11.0193 13.8462 7.50002C13.8462 3.98078 11.0192 1.15385 7.5 1.15385Z" fill="#C4C4C4"/>
<path d="M12.9523 12L19 18.0477L18.0477 19L12 12.9523L12.9523 12Z" fill="#C4C4C4"/>
</svg>
