<?xml version="1.0" encoding="utf-8"?><svg width="503" height="458" viewBox="0 0 503 458" xmlns="http://www.w3.org/2000/svg" xmlns:xlink="http://www.w3.org/1999/xlink"><svg width="20" height="16" viewBox="0 0 20 16" id="sprite-footer-logo-mob" x="478" y="429.17999999999995" xmlns="http://www.w3.org/2000/svg"><defs><style>.aacls-1{fill:#ffb600;fill-rule:evenodd}</style></defs><path class="aacls-1" d="M17.895 3.835a5.114 5.114 0 0 0-2.77-1.12 2.059 2.059 0 0 1-.57-.12 1.78 1.78 0 0 1-.64-.76 3.429 3.429 0 0 0-3.48-1.96h-.03a2.7 2.7 0 0 0-1.92.72 1.133 1.133 0 0 1-.59.34.844.844 0 0 1-.57-.22 3.8 3.8 0 0 0-2.68-.58 4.988 4.988 0 0 0-3.77 2.38 4.927 4.927 0 0 0-.23 4.61 4.809 4.809 0 0 0 2.82 2.2c0 .46.01 1.25.05 2.1.08 1.38.2 2.31 1.08 2.52a2.224 2.224 0 0 0 .73 0 4.485 4.485 0 0 1 1.26.02 9.275 9.275 0 0 1 3.22 1.35 7.557 7.557 0 0 0 1.53.77 1.487 1.487 0 0 0 .36.05c.88 0 1.39-1.1 1.69-1.73.03-.08.07-.15.1-.22.09-.19.24-.44.38-.68.48-.8.63-1.08.45-1.24-.44-.36-1.26.38-1.88 1.06l-.19.25a7.837 7.837 0 0 1-.5.64.217.217 0 0 1-.28.05c-.14-.07-.29-.16-.38-.2a10.024 10.024 0 0 0-4.93-1.22 3.589 3.589 0 0 1-.48-.01.706.706 0 0 1-.56-.54c-.04-.22-.08-.48-.11-.74a5.46 5.46 0 0 1-.05-.4 7.186 7.186 0 0 0-.43-1.55 1.741 1.741 0 0 0 1.05-.04.3.3 0 0 0 .13-.19c.04-.23-.23-.32-.76-.49-1.19-.39-3.41-1.11-3.36-3.53a3.513 3.513 0 0 1 3.44-3.53 2.77 2.77 0 0 1 1.53.36 2.9 2.9 0 0 0 1.34.37h.01a2.562 2.562 0 0 0 1.49-.61 2.45 2.45 0 0 1 1.73-.62 2.33 2.33 0 0 1 1.92 1.3 2.485 2.485 0 0 0 .82.88 4.21 4.21 0 0 0 1.36.36 4.377 4.377 0 0 1 1.78.54 4.089 4.089 0 0 1 1.56 3.86c-.52 1.81-2.33 2.74-3.3 2.49a3.338 3.338 0 0 1-1.28-.73 6.888 6.888 0 0 0-2.49-1.34 13.1 13.1 0 0 0-3.44-.57.422.422 0 0 0-.43.34.4.4 0 0 0 .38.37 17.977 17.977 0 0 1 3.54 1.22 8.553 8.553 0 0 1 1.77 1.23 4.5 4.5 0 0 0 1.28.86 3.128 3.128 0 0 0 2.63-.25 5.029 5.029 0 0 0 2.46-3.11 4.691 4.691 0 0 0-1.79-4.94z"/></svg><svg width="31" height="26" viewBox="0 0 31 26" id="sprite-footer-logo-tab" x="386" y="372" xmlns="http://www.w3.org/2000/svg"><defs><style>.abcls-1{fill:#ffb600;fill-rule:evenodd}</style></defs><path class="abcls-1" d="M27.646 6.585a7.7 7.7 0 0 0-4.251-1.73 3.5 3.5 0 0 1-.887-.18 2.732 2.732 0 0 1-.979-1.18c-.747-1.27-1.77-3.02-5.363-3.02h-.033a4.167 4.167 0 0 0-2.958 1.12 1.872 1.872 0 0 1-.91.52 1.359 1.359 0 0 1-.872-.33 5.83 5.83 0 0 0-4.126-.89 7.564 7.564 0 0 0-6.16 10.74c.831 1.94 3.2 2.99 4.347 3.39 0 .7.008 1.92.081 3.22.123 2.14.3 3.56 1.65 3.88a3.526 3.526 0 0 0 1.129.01 6.65 6.65 0 0 1 1.931.03 14.378 14.378 0 0 1 4.966 2.08 11.793 11.793 0 0 0 2.348 1.17 1.827 1.827 0 0 0 .546.09c1.362 0 2.152-1.7 2.6-2.66.057-.13.111-.24.16-.34.142-.29.371-.68.592-1.05.725-1.23.961-1.67.679-1.9-.668-.56-1.932.58-2.88 1.63-.049.06-.157.2-.292.38-.227.3-.535.71-.777.99a.362.362 0 0 1-.427.08 7.142 7.142 0 0 0-.587-.31c-4.339-1.97-6.365-1.92-7.577-1.89a4.453 4.453 0 0 1-.745-.01 1.1 1.1 0 0 1-.868-.83c-.063-.33-.113-.73-.165-1.14-.026-.21-.053-.41-.079-.61a10.133 10.133 0 0 0-.663-2.39 2.708 2.708 0 0 0 1.618-.06.44.44 0 0 0 .2-.29c.063-.36-.346-.49-1.16-.76-1.835-.59-5.251-1.7-5.175-5.42.1-5 4.768-5.41 5.3-5.44a4.212 4.212 0 0 1 2.352.56 4.585 4.585 0 0 0 2.055.57h.015a3.941 3.941 0 0 0 2.3-.95 3.8 3.8 0 0 1 2.667-.95 3.612 3.612 0 0 1 2.946 2 3.7 3.7 0 0 0 1.267 1.35 6.4 6.4 0 0 0 2.086.56 6.788 6.788 0 0 1 2.736.83 6.291 6.291 0 0 1 2.4 5.94c-.8 2.78-3.578 4.22-5.065 3.83a5.135 5.135 0 0 1-1.976-1.13 10.7 10.7 0 0 0-3.825-2.05 19.886 19.886 0 0 0-5.294-.88.632.632 0 0 0-.66.52.581.581 0 0 0 .571.56 28.905 28.905 0 0 1 5.448 1.89 12.9 12.9 0 0 1 2.721 1.88 6.873 6.873 0 0 0 1.982 1.33 4.8 4.8 0 0 0 4.048-.38 7.776 7.776 0 0 0 3.771-4.79 7.19 7.19 0 0 0-2.758-7.59z"/></svg><svg width="30" height="25" viewBox="0 0 30 25" id="sprite-header-logo-desk" x="417" y="372" xmlns="http://www.w3.org/2000/svg"><defs><style>.accls-1{fill:#ffb600;fill-rule:evenodd}</style></defs><path class="accls-1" d="M27.145 6.084a7.752 7.752 0 0 0-4.25-1.725 3.541 3.541 0 0 1-.888-.181 2.753 2.753 0 0 1-.979-1.181c-.746-1.273-1.769-3.015-5.362-3.015h-.033a4.15 4.15 0 0 0-2.959 1.117 1.879 1.879 0 0 1-.909.524 1.37 1.37 0 0 1-.872-.335 5.846 5.846 0 0 0-4.127-.89 7.563 7.563 0 0 0-6.16 10.74c.832 1.947 3.2 2.988 4.348 3.391 0 .7.008 1.921.08 3.224.123 2.135.3 3.559 1.651 3.878a3.612 3.612 0 0 0 1.129.006 6.73 6.73 0 0 1 1.931.032 14.468 14.468 0 0 1 4.966 2.08 11.649 11.649 0 0 0 2.348 1.175 1.849 1.849 0 0 0 .546.086c1.361 0 2.151-1.7 2.6-2.661.057-.125.11-.24.159-.339.143-.289.371-.677.593-1.052.724-1.229.961-1.666.678-1.9-.667-.553-1.931.579-2.879 1.632-.05.058-.157.2-.292.38-.227.3-.535.708-.777.987a.342.342 0 0 1-.427.078 11.485 11.485 0 0 0-.587-.308c-4.339-1.974-6.365-1.922-7.579-1.886a5.353 5.353 0 0 1-.744-.01 1.113 1.113 0 0 1-.868-.833 20.31 20.31 0 0 1-.165-1.144c-.026-.2-.052-.406-.08-.606a10.068 10.068 0 0 0-.662-2.387 2.713 2.713 0 0 0 1.617-.064.438.438 0 0 0 .2-.291c.063-.359-.346-.491-1.16-.755-1.835-.6-5.252-1.7-5.175-5.425.1-5 4.768-5.408 5.3-5.438a4.254 4.254 0 0 1 2.353.556 4.413 4.413 0 0 0 2.055.571h.015a3.973 3.973 0 0 0 2.3-.946 3.774 3.774 0 0 1 2.667-.947 3.6 3.6 0 0 1 2.947 1.995 3.7 3.7 0 0 0 1.267 1.352 6.29 6.29 0 0 0 2.085.556 6.875 6.875 0 0 1 2.738.834 6.292 6.292 0 0 1 2.4 5.939c-.8 2.784-3.578 4.22-5.065 3.827a5.132 5.132 0 0 1-1.976-1.125 10.631 10.631 0 0 0-3.825-2.055 19.836 19.836 0 0 0-5.294-.876.626.626 0 0 0-.66.52.587.587 0 0 0 .571.562 28.205 28.205 0 0 1 5.448 1.888 12.859 12.859 0 0 1 2.711 1.881 6.958 6.958 0 0 0 1.981 1.332 4.8 4.8 0 0 0 4.049-.389 7.749 7.749 0 0 0 3.771-4.781 7.2 7.2 0 0 0-2.75-7.598z"/></svg><svg id="sprite-header-logo-desk_round" data-name="Группа 1" width="53" height="53" viewBox="0 0 53 53" x="198" y="306" xmlns="http://www.w3.org/2000/svg"><defs><style>.adcls-1{fill:#ffb600}.adcls-2{fill:#fff;fill-rule:evenodd}</style></defs><circle class="adcls-1" cx="26.5" cy="26.5" r="26.406"/><path id="adИконка_логотипа" data-name="Иконка логотипа" class="adcls-2" d="M831.873 70.176a8.682 8.682 0 0 0-4.76-1.931 3.975 3.975 0 0 1-1-.2 3.077 3.077 0 0 1-1.1-1.324c-.837-1.425-1.981-3.376-6.006-3.376h-.037a4.645 4.645 0 0 0-3.313 1.25 2.1 2.1 0 0 1-1.019.587 1.538 1.538 0 0 1-.976-.376 6.55 6.55 0 0 0-4.622-1 8.471 8.471 0 0 0-6.9 12.029c.932 2.18 3.583 3.347 4.87 3.8 0 .787.008 2.152.09 3.611.138 2.392.341 3.986 1.849 4.344a4.033 4.033 0 0 0 1.264.006 7.538 7.538 0 0 1 2.162.035 16.216 16.216 0 0 1 5.563 2.329 13.013 13.013 0 0 0 2.63 1.316 2.065 2.065 0 0 0 .61.1c1.526 0 2.41-1.9 2.912-2.98.065-.14.124-.269.18-.379.159-.324.415-.759.663-1.178.812-1.377 1.076-1.866.76-2.129-.747-.619-2.163.649-3.226 1.828-.054.064-.175.224-.327.426a25.2 25.2 0 0 1-.869 1.106.384.384 0 0 1-.479.087 13.2 13.2 0 0 0-.657-.345c-4.86-2.208-7.129-2.149-8.487-2.11a6.055 6.055 0 0 1-.834-.011 1.248 1.248 0 0 1-.972-.933c-.07-.374-.127-.821-.185-1.281a113.16 113.16 0 0 0-.089-.679 11.255 11.255 0 0 0-.742-2.674 3.046 3.046 0 0 0 1.812-.072.489.489 0 0 0 .224-.325c.071-.4-.387-.55-1.3-.846-2.055-.667-5.881-1.908-5.8-6.075.112-5.6 5.34-6.056 5.936-6.09a4.767 4.767 0 0 1 2.635.623 4.936 4.936 0 0 0 2.3.64h.016a4.446 4.446 0 0 0 2.571-1.059 4.226 4.226 0 0 1 2.987-1.06 4.034 4.034 0 0 1 3.3 2.235 4.147 4.147 0 0 0 1.419 1.514 7.055 7.055 0 0 0 2.336.622 7.691 7.691 0 0 1 3.065.933c1.866 1.125 3.271 4.607 2.685 6.652-.893 3.118-4.007 4.726-5.673 4.286a5.733 5.733 0 0 1-2.212-1.259 11.91 11.91 0 0 0-4.285-2.3 22.188 22.188 0 0 0-5.928-.981.7.7 0 0 0-.741.582.659.659 0 0 0 .641.629 31.612 31.612 0 0 1 6.1 2.115 14.4 14.4 0 0 1 3.048 2.107 7.777 7.777 0 0 0 2.219 1.491 5.376 5.376 0 0 0 4.534-.435 8.677 8.677 0 0 0 4.224-5.355 8.068 8.068 0 0 0-3.066-8.52z" transform="translate(-791.844 -50.5)"/></svg><svg id="sprite-header-logo-mob" data-name="Группа 1" width="33" height="33" viewBox="0 0 33 33" x="97" y="372" xmlns="http://www.w3.org/2000/svg"><defs><style>.aecls-1{fill:#ffb600}.aecls-2{fill:#fff;fill-rule:evenodd}</style></defs><circle class="aecls-1" cx="16.5" cy="16.5" r="16.5"/><path id="aeИконка_логотипа" data-name="Иконка логотипа" class="aecls-2" d="M180.205 138.984a5.429 5.429 0 0 0-2.976-1.207 2.453 2.453 0 0 1-.621-.127 1.915 1.915 0 0 1-.685-.827 3.708 3.708 0 0 0-3.754-2.11h-.023a2.9 2.9 0 0 0-2.071.781 1.306 1.306 0 0 1-.637.367.965.965 0 0 1-.61-.235 4.094 4.094 0 0 0-2.889-.623 5.3 5.3 0 0 0-4.312 7.518 5.174 5.174 0 0 0 3.044 2.374c0 .491 0 1.345.056 2.256.086 1.495.213 2.492 1.155 2.716a2.511 2.511 0 0 0 .791 0 4.694 4.694 0 0 1 1.351.023 10.108 10.108 0 0 1 3.477 1.455 8.1 8.1 0 0 0 1.643.823 1.3 1.3 0 0 0 .382.06c.953 0 1.506-1.188 1.82-1.862.04-.088.078-.168.112-.237.1-.2.26-.475.414-.737.508-.86.673-1.166.476-1.33-.467-.388-1.353.406-2.016 1.142-.035.04-.11.14-.2.266-.158.209-.374.5-.543.691a.24.24 0 0 1-.3.055 8.27 8.27 0 0 0-.411-.216c-3.038-1.38-4.455-1.343-5.3-1.319a3.626 3.626 0 0 1-.522-.007.779.779 0 0 1-.607-.583c-.044-.233-.079-.513-.116-.8l-.055-.424a7.061 7.061 0 0 0-.464-1.671 1.907 1.907 0 0 0 1.132-.045.307.307 0 0 0 .14-.2c.045-.251-.241-.344-.811-.529-1.285-.417-3.676-1.193-3.623-3.8a3.785 3.785 0 0 1 3.71-3.807 2.97 2.97 0 0 1 1.647.39 3.093 3.093 0 0 0 1.438.4h.01a2.786 2.786 0 0 0 1.608-.662 2.634 2.634 0 0 1 1.866-.662 2.52 2.52 0 0 1 2.063 1.4 2.6 2.6 0 0 0 .886.947 4.413 4.413 0 0 0 1.46.388 4.816 4.816 0 0 1 1.916.583 4.4 4.4 0 0 1 1.679 4.158c-.559 1.95-2.5 2.954-3.546 2.679a3.6 3.6 0 0 1-1.383-.787 7.416 7.416 0 0 0-2.678-1.438 13.832 13.832 0 0 0-3.7-.613.439.439 0 0 0-.463.363.411.411 0 0 0 .4.393 19.8 19.8 0 0 1 3.813 1.322 9.007 9.007 0 0 1 1.9 1.316 4.843 4.843 0 0 0 1.387.933 3.362 3.362 0 0 0 2.834-.272 5.422 5.422 0 0 0 2.639-3.347 5.042 5.042 0 0 0-1.933-5.322z" transform="translate(-155 -126)"/></svg><svg id="sprite-header-logo-tab" data-name="Группа 1" width="66" height="66" viewBox="0 0 66 66" x="342" y="66" xmlns="http://www.w3.org/2000/svg"><defs><style>.afcls-1{fill:#ffb600}.afcls-2{fill:#fff;fill-rule:evenodd}</style></defs><circle class="afcls-1" cx="33" cy="33" r="33"/><path id="afИконка_логотипа" data-name="Иконка логотипа" class="afcls-2" d="M365.91 173.469a10.856 10.856 0 0 0-5.951-2.414 4.94 4.94 0 0 1-1.242-.254 3.844 3.844 0 0 1-1.371-1.654c-1.046-1.782-2.477-4.22-7.507-4.22h-.047a5.807 5.807 0 0 0-4.142 1.563 2.631 2.631 0 0 1-1.273.733 1.919 1.919 0 0 1-1.22-.47 8.19 8.19 0 0 0-5.778-1.246 10.588 10.588 0 0 0-8.624 15.036c1.164 2.725 4.478 4.183 6.087 4.747 0 .984.011 2.69.112 4.514.172 2.99.426 4.983 2.311 5.43a5.042 5.042 0 0 0 1.581.007 9.427 9.427 0 0 1 2.7.045 20.263 20.263 0 0 1 6.954 2.914 16.244 16.244 0 0 0 3.288 1.645 2.571 2.571 0 0 0 .764.121c1.906 0 3.012-2.378 3.64-3.725.08-.175.155-.335.223-.474.2-.405.52-.949.829-1.473 1.015-1.721 1.346-2.332.951-2.662-.934-.774-2.7.812-4.032 2.286-.069.08-.219.28-.409.532-.317.418-.748.991-1.087 1.382a.48.48 0 0 1-.6.109 16.503 16.503 0 0 0-.822-.432c-6.075-2.76-8.911-2.686-10.608-2.637a7.537 7.537 0 0 1-1.043-.014 1.559 1.559 0 0 1-1.215-1.166 28.19 28.19 0 0 1-.231-1.6l-.112-.849a14.123 14.123 0 0 0-.926-3.342 3.807 3.807 0 0 0 2.264-.09.614.614 0 0 0 .28-.407c.089-.5-.484-.687-1.623-1.057-2.57-.834-7.352-2.385-7.246-7.594.14-7 6.675-7.571 7.42-7.613a5.946 5.946 0 0 1 3.293.778 6.183 6.183 0 0 0 2.878.8h.02a5.553 5.553 0 0 0 3.214-1.324 5.28 5.28 0 0 1 3.734-1.325c2.405.222 3.279 1.529 4.124 2.793a5.194 5.194 0 0 0 1.774 1.892 8.816 8.816 0 0 0 2.92.778 9.617 9.617 0 0 1 3.838 1.162c2.332 1.406 4.088 5.758 3.357 8.316-1.117 3.9-5.009 5.907-7.091 5.357a7.172 7.172 0 0 1-2.766-1.574 14.865 14.865 0 0 0-5.356-2.877 27.751 27.751 0 0 0-7.411-1.226.877.877 0 0 0-.925.727.822.822 0 0 0 .8.786 39.545 39.545 0 0 1 7.627 2.644 18 18 0 0 1 3.809 2.633 9.72 9.72 0 0 0 2.774 1.864 6.717 6.717 0 0 0 5.667-.544 10.847 10.847 0 0 0 5.28-6.694 10.083 10.083 0 0 0-3.855-10.637z" transform="translate(-315 -148)"/></svg><svg width="12" height="19" viewBox="0 0 12 19" id="sprite-ico-arrow-back-mob" x="491" y="147" xmlns="http://www.w3.org/2000/svg"><defs><style>.agcls-1{fill:#666;fill-rule:evenodd}</style></defs><path class="agcls-1" d="M10.145 18.99a1.371 1.371 0 0 0 .96-.39 1.316 1.316 0 0 0 0-1.87l-7.37-7.24 7.37-7.24a1.316 1.316 0 0 0 0-1.87 1.364 1.364 0 0 0-1.91 0L.875 8.55a1.333 1.333 0 0 0-.39.94 1.293 1.293 0 0 0 .39.93l8.32 8.18a1.365 1.365 0 0 0 .95.39z"/></svg><svg width="12" height="19" viewBox="0 0 12 19" id="sprite-ico-arrow-back-mob-yellow" x="491" y="195" xmlns="http://www.w3.org/2000/svg"><defs><style>.ahcls-1{fill:#ffb600;fill-rule:evenodd}</style></defs><path class="ahcls-1" d="M10.145 18.99a1.371 1.371 0 0 0 .96-.39 1.316 1.316 0 0 0 0-1.87l-7.37-7.24 7.37-7.24a1.316 1.316 0 0 0 0-1.87 1.364 1.364 0 0 0-1.91 0L.875 8.55a1.333 1.333 0 0 0-.39.94 1.293 1.293 0 0 0 .39.93l8.32 8.18a1.365 1.365 0 0 0 .95.39z"/></svg><svg width="18" height="29" viewBox="0 0 18 29" id="sprite-ico-arrow-back-mob2" y="429" xmlns="http://www.w3.org/2000/svg"><defs><style>.aicls-1{fill:#666;fill-rule:evenodd}</style></defs><path class="aicls-1" d="M15.415 28.99a2.132 2.132 0 0 0 1.47-.59 1.987 1.987 0 0 0 0-2.86L5.515 14.48l11.37-11.06a1.975 1.975 0 0 0 0-2.85 2.12 2.12 0 0 0-2.94 0L1.105 13.05a1.981 1.981 0 0 0 0 2.86l12.84 12.49a2.115 2.115 0 0 0 1.47.59z"/></svg><svg width="18" height="29" viewBox="0 0 18 29" id="sprite-ico-arrow-back-mob2-yellow" x="321" y="247" xmlns="http://www.w3.org/2000/svg"><defs><style>.ajcls-1{fill:#ffb600;fill-rule:evenodd}</style></defs><path class="ajcls-1" d="M15.415 28.99a2.132 2.132 0 0 0 1.47-.59 1.987 1.987 0 0 0 0-2.86L5.515 14.48l11.37-11.06a1.975 1.975 0 0 0 0-2.85 2.12 2.12 0 0 0-2.94 0L1.105 13.05a1.981 1.981 0 0 0 0 2.86l12.84 12.49a2.115 2.115 0 0 0 1.47.59z"/></svg><svg width="14" height="23" viewBox="0 0 14 23" id="sprite-ico-arrow-back-tab" x="478" y="219" xmlns="http://www.w3.org/2000/svg"><defs><style>.akcls-1{fill:#666;fill-rule:evenodd}</style></defs><path class="akcls-1" d="M11.915 22.99a1.6 1.6 0 0 0 1.12-2.73l-8.71-8.76 8.71-8.76a1.595 1.595 0 1 0-2.25-2.26l-9.84 9.89a1.593 1.593 0 0 0 0 2.26l9.84 9.89a1.6 1.6 0 0 0 1.13.47z"/></svg><svg width="14" height="23" viewBox="0 0 14 23" id="sprite-ico-arrow-back-tab-yellow" x="478" y="242" xmlns="http://www.w3.org/2000/svg"><defs><style>.alcls-1{fill:#ffb600;fill-rule:evenodd}</style></defs><path class="alcls-1" d="M11.915 22.99a1.6 1.6 0 0 0 1.12-2.73l-8.71-8.76 8.71-8.76a1.595 1.595 0 1 0-2.25-2.26l-9.84 9.89a1.593 1.593 0 0 0 0 2.26l9.84 9.89a1.6 1.6 0 0 0 1.13.47z"/></svg><svg width="11" height="19" viewBox="0 0 11 19" id="sprite-ico-arrow-more-mob" x="492" y="99" xmlns="http://www.w3.org/2000/svg"><defs><style>.amcls-1{fill:#666;fill-rule:evenodd}</style></defs><path class="amcls-1" d="M1.385 18.85a1.325 1.325 0 0 1-.94-.39 1.28 1.28 0 0 1 0-1.84l7.28-7.13-7.28-7.14a1.28 1.28 0 0 1 0-1.84 1.346 1.346 0 0 1 1.88 0l8.23 8.05a1.292 1.292 0 0 1 0 1.85l-8.23 8.05a1.325 1.325 0 0 1-.94.39z"/></svg><svg width="11" height="19" viewBox="0 0 11 19" id="sprite-ico-arrow-more-mob-yellow" x="492" y="75" xmlns="http://www.w3.org/2000/svg"><defs><style>.ancls-1{fill:#ffb600;fill-rule:evenodd}</style></defs><path class="ancls-1" d="M1.385 18.85a1.325 1.325 0 0 1-.94-.39 1.28 1.28 0 0 1 0-1.84l7.28-7.13-7.28-7.14a1.28 1.28 0 0 1 0-1.84 1.346 1.346 0 0 1 1.88 0l8.23 8.05a1.292 1.292 0 0 1 0 1.85l-8.23 8.05a1.325 1.325 0 0 1-.94.39z"/></svg><svg width="17" height="29" viewBox="0 0 17 29" id="sprite-ico-arrow-more-mob2" x="18" y="429" xmlns="http://www.w3.org/2000/svg"><defs><style>.aocls-1{fill:#666;fill-rule:evenodd}</style></defs><path class="aocls-1" d="M2.165 28.88a2.085 2.085 0 0 1-1.45-.59 1.98 1.98 0 0 1 0-2.84l11.21-10.97L.715 3.51a1.98 1.98 0 0 1 0-2.84 2.071 2.071 0 0 1 2.9 0l12.65 12.39a1.98 1.98 0 0 1 0 2.84L3.615 28.29a2.068 2.068 0 0 1-1.45.59z"/></svg><svg width="17" height="29" viewBox="0 0 17 29" id="sprite-ico-arrow-more-mob2-yellow" x="35" y="429" xmlns="http://www.w3.org/2000/svg"><defs><style>.apcls-1{fill:#ffb600;fill-rule:evenodd}</style></defs><path class="apcls-1" d="M2.165 28.88a2.085 2.085 0 0 1-1.45-.59 1.98 1.98 0 0 1 0-2.84l11.21-10.97L.715 3.51a1.98 1.98 0 0 1 0-2.84 2.071 2.071 0 0 1 2.9 0l12.65 12.39a1.98 1.98 0 0 1 0 2.84L3.615 28.29a2.068 2.068 0 0 1-1.45.59z"/></svg><svg width="14" height="24" viewBox="0 0 14 24" id="sprite-ico-arrow-more-tab" x="478" y="75" xmlns="http://www.w3.org/2000/svg"><defs><style>.aqcls-1{fill:#666;fill-rule:evenodd}</style></defs><path class="aqcls-1" d="M1.935 23.52a1.625 1.625 0 0 1-1.16-.47 1.582 1.582 0 0 1 0-2.27L9.735 12 .775 3.22a1.582 1.582 0 0 1 0-2.27 1.679 1.679 0 0 1 2.32 0l10.12 9.92a1.582 1.582 0 0 1 0 2.27l-10.12 9.91a1.625 1.625 0 0 1-1.16.47z"/></svg><svg width="14" height="24" viewBox="0 0 14 24" id="sprite-ico-arrow-more-tab-yellow" x="478" y="99" xmlns="http://www.w3.org/2000/svg"><defs><style>.arcls-1{fill:#ffb600;fill-rule:evenodd}</style></defs><path class="arcls-1" d="M1.935 23.52a1.625 1.625 0 0 1-1.16-.47 1.582 1.582 0 0 1 0-2.27L9.735 12 .775 3.22a1.582 1.582 0 0 1 0-2.27 1.679 1.679 0 0 1 2.32 0l10.12 9.92a1.582 1.582 0 0 1 0 2.27l-10.12 9.91a1.625 1.625 0 0 1-1.16.47z"/></svg><svg width="18.84" height="22.09" viewBox="0 0 18.84 22.09" id="sprite-ico-bell-mob-grey" x="478" y="287.09" xmlns="http://www.w3.org/2000/svg"><defs><style>.ascls-1{fill:#ccc;fill-rule:evenodd}</style></defs><path class="ascls-1" d="M17.41 20.4h-5.9a2.141 2.141 0 0 1-4.19 0h-5.9a1.425 1.425 0 0 1 0-2.85h.12a49.127 49.127 0 0 0 .54-7.17 7.31 7.31 0 0 1 4.15-6.59v-.61a3.19 3.19 0 0 1 6.38 0v.61a7.3 7.3 0 0 1 4.14 6.59 47.784 47.784 0 0 0 .55 7.17h.11a1.425 1.425 0 1 1 0 2.85zM10.87 3.18a1.455 1.455 0 0 0-2.91 0v.02a7.021 7.021 0 0 1 1.46-.15 6.925 6.925 0 0 1 1.45.15v-.02z"/></svg><svg width="18.84" height="22.09" viewBox="0 0 18.84 22.09" id="sprite-ico-bell-mob-yellow" x="478" y="265" xmlns="http://www.w3.org/2000/svg"><defs><style>.atcls-1{fill:#ffb600;fill-rule:evenodd}</style></defs><path class="atcls-1" d="M17.41 20.4h-5.9a2.141 2.141 0 0 1-4.19 0h-5.9a1.425 1.425 0 0 1 0-2.85h.12a49.127 49.127 0 0 0 .54-7.17 7.31 7.31 0 0 1 4.15-6.59v-.61a3.19 3.19 0 0 1 6.38 0v.61a7.3 7.3 0 0 1 4.14 6.59 47.784 47.784 0 0 0 .55 7.17h.11a1.425 1.425 0 1 1 0 2.85zM10.87 3.18a1.455 1.455 0 0 0-2.91 0v.02a7.021 7.021 0 0 1 1.46-.15 6.925 6.925 0 0 1 1.45.15v-.02z"/></svg><svg width="29" height="34" viewBox="0 0 29 34" id="sprite-ico-bell-tab-grey" x="292" y="247" xmlns="http://www.w3.org/2000/svg"><defs><style>.aucls-1{fill:#ccc;fill-rule:evenodd}</style></defs><path class="aucls-1" d="M26.8 31.37h-9.077a3.291 3.291 0 0 1-6.444 0H2.2a2.19 2.19 0 1 1 0-4.38h.174a74.5 74.5 0 0 0 .839-11.04A11.248 11.248 0 0 1 9.596 5.82v-.94a4.903 4.903 0 0 1 9.806 0v.94a11.248 11.248 0 0 1 6.383 10.13 74.37 74.37 0 0 0 .84 11.04h.175a2.19 2.19 0 1 1 0 4.38zM16.739 4.88a2.238 2.238 0 0 0-4.476 0v.03a11.493 11.493 0 0 1 4.476 0v-.03z"/></svg><svg width="29" height="34" viewBox="0 0 29 34" id="sprite-ico-bell-tab-yellow" y="372" xmlns="http://www.w3.org/2000/svg"><defs><style>.avcls-1{fill:#ffb600;fill-rule:evenodd}</style></defs><path class="avcls-1" d="M26.8 31.37h-9.077a3.291 3.291 0 0 1-6.444 0H2.2a2.19 2.19 0 1 1 0-4.38h.174a74.5 74.5 0 0 0 .839-11.04A11.248 11.248 0 0 1 9.596 5.82v-.94a4.903 4.903 0 0 1 9.806 0v.94a11.248 11.248 0 0 1 6.383 10.13 74.37 74.37 0 0 0 .84 11.04h.175a2.19 2.19 0 1 1 0 4.38zM16.739 4.88a2.238 2.238 0 0 0-4.476 0v.03a11.493 11.493 0 0 1 4.476 0v-.03z"/></svg><svg width="8" height="15" viewBox="0 0 8 15" id="sprite-ico-carousel-arrow-next-mob" x="492" y="242" xmlns="http://www.w3.org/2000/svg"><defs><style>.awcls-1{fill:#fff;fill-rule:evenodd}</style></defs><path class="awcls-1" d="M.992 14.71a.946.946 0 0 1-.688-.3 1.027 1.027 0 0 1 0-1.42l5.321-5.5-5.321-5.5a1.039 1.039 0 0 1 0-1.43.955.955 0 0 1 1.376 0l6.008 6.22a1 1 0 0 1 .285.71 1.037 1.037 0 0 1-.285.71L1.68 14.41a.946.946 0 0 1-.688.3z"/></svg><svg width="16" height="29" viewBox="0 0 16 29" id="sprite-ico-carousel-arrow-next-mob2" x="315.25" y="180" xmlns="http://www.w3.org/2000/svg"><defs><style>.axcls-1{fill:#fff;fill-rule:evenodd}</style></defs><path class="axcls-1" d="M1.999 28.92a1.881 1.881 0 0 1-1.376-.59 2.054 2.054 0 0 1 0-2.84l10.642-11L.623 3.48a2.054 2.054 0 0 1 0-2.84 1.893 1.893 0 0 1 2.751 0l12.017 12.42a2.066 2.066 0 0 1 0 2.85L3.374 28.33a1.877 1.877 0 0 1-1.375.59z"/></svg><svg width="13" height="24" viewBox="0 0 13 24" id="sprite-ico-carousel-arrow-next-tab" x="478" y="195" xmlns="http://www.w3.org/2000/svg"><defs><style>.aycls-1{fill:#fff;fill-rule:evenodd}</style></defs><path class="aycls-1" d="M1.697 23.505a1.54 1.54 0 0 1-1.1-.47 1.641 1.641 0 0 1 0-2.27l8.513-8.78-8.513-8.78a1.641 1.641 0 0 1 0-2.27 1.517 1.517 0 0 1 2.2 0l9.614 9.91a1.641 1.641 0 0 1 0 2.27l-9.614 9.92a1.541 1.541 0 0 1-1.1.47z"/></svg><svg width="8" height="15" viewBox="0 0 8 15" id="sprite-ico-carousel-arrow-prev-mob" x="492" y="219" xmlns="http://www.w3.org/2000/svg"><defs><style>.azcls-1{fill:#fff;fill-rule:evenodd}</style></defs><path class="azcls-1" d="M7.009 14.71a.942.942 0 0 0 .687-.3 1.027 1.027 0 0 0 0-1.42l-5.32-5.5 5.32-5.5a1.039 1.039 0 0 0 0-1.43.954.954 0 0 0-1.375 0L.312 6.78a1 1 0 0 0-.285.71 1.037 1.037 0 0 0 .285.71l6.009 6.21a.946.946 0 0 0 .688.3z"/></svg><svg width="16" height="29" viewBox="0 0 16 29" id="sprite-ico-carousel-arrow-prev-mob2" x="382" y="264" xmlns="http://www.w3.org/2000/svg"><defs><style>.bacls-1{fill:#fff;fill-rule:evenodd}</style></defs><path class="bacls-1" d="M14.001 28.92a1.877 1.877 0 0 0 1.375-.59 2.054 2.054 0 0 0 0-2.84l-10.641-11L15.376 3.48a2.054 2.054 0 0 0 0-2.84 1.892 1.892 0 0 0-2.75 0L.608 13.06a2.069 2.069 0 0 0 0 2.85l12.018 12.42a1.877 1.877 0 0 0 1.375.59z"/></svg><svg width="13" height="24" viewBox="0 0 13 24" id="sprite-ico-carousel-arrow-prev-tab" x="478" y="147" xmlns="http://www.w3.org/2000/svg"><defs><style>.bbcls-1{fill:#fff;fill-rule:evenodd}</style></defs><path class="bbcls-1" d="M11.304 23.505a1.541 1.541 0 0 0 1.1-.47 1.641 1.641 0 0 0 0-2.27l-8.513-8.78 8.513-8.78a1.641 1.641 0 0 0 0-2.27 1.517 1.517 0 0 0-2.2 0L.59 10.845a1.641 1.641 0 0 0 0 2.27l9.614 9.92a1.54 1.54 0 0 0 1.1.47z"/></svg><svg width="22" height="22" viewBox="0 0 22 22" id="sprite-ico-checkbox-mob-yellow" x="478" y="351.17999999999995" xmlns="http://www.w3.org/2000/svg"><defs><style>.bccls-1{fill:#ffb600;fill-rule:evenodd}</style></defs><path id="bcПрямоугольник_скругл._углы_1_копия" data-name="Прямоугольник, скругл. углы 1 копия" class="bccls-1" d="M2.984 10.454l6.08 6.08a2.19 2.19 0 0 0 3.4-.094c-.89.89 7.294-7.493 7.294-7.493a1.656 1.656 0 0 0-2.338-2.342l-6.8 6.8-5.294-5.293a1.656 1.656 0 0 0-2.342 2.342z" transform="translate(-.375 -.719)"/></svg><svg width="22" height="14" viewBox="0 0 22 14" id="sprite-ico-clip-mob-yellow" x="478" y="373.17999999999995" xmlns="http://www.w3.org/2000/svg"><defs><style>.bdcls-1{fill:#ffb600;fill-rule:evenodd}</style></defs><path class="bdcls-1" d="M7.1 13.53A6.526 6.526 0 1 1 7.1.48h9.428a4.925 4.925 0 1 1 0 9.85H9.416a3.325 3.325 0 1 1 0-6.65h6.155v1.94H9.416a1.38 1.38 0 1 0 0 2.76h7.112a2.98 2.98 0 1 0 0-5.96H7.1a4.58 4.58 0 1 0 0 9.16v1.95z"/></svg><svg width="43" height="27" viewBox="0 0 43 27" id="sprite-ico-clip-mob2-yellow" x="408" y="208" xmlns="http://www.w3.org/2000/svg"><defs><style>.becls-1{fill:#ffb600;fill-rule:evenodd}</style></defs><path class="becls-1" d="M13.7 26.545a13.056 13.056 0 1 1 0-26.11h18.862a9.856 9.856 0 1 1 0 19.71H18.333a6.651 6.651 0 1 1 0-13.3h12.31v3.89h-12.31a2.76 2.76 0 1 0 0 5.52h14.229a5.96 5.96 0 1 0 0-11.92H13.7a9.161 9.161 0 1 0 0 18.32v3.89z"/></svg><svg width="34" height="21" viewBox="0 0 34 21" id="sprite-ico-clip-tab-yellow" x="292" y="226" xmlns="http://www.w3.org/2000/svg"><defs><style>.bfcls-1{fill:#ffb600;fill-rule:evenodd}</style></defs><path class="bfcls-1" d="M10.74 20.945a10.441 10.441 0 1 1 0-20.88h15.093a7.881 7.881 0 1 1 0 15.76H14.45a5.32 5.32 0 1 1 0-10.64h9.848v3.11H14.45a2.21 2.21 0 1 0 0 4.42h11.383a4.77 4.77 0 1 0 0-9.54H10.74a7.331 7.331 0 1 0 0 14.66v3.11z"/></svg><svg width="16" height="15" viewBox="0 0 16 15" id="sprite-ico-like-mob-deepgrey" x="460" y="97" xmlns="http://www.w3.org/2000/svg"><defs><style>.bgcls-1{fill:#666;fill-rule:evenodd}</style></defs><path class="bgcls-1" d="M8 2.312C7-1.139.2-1.139.2 4.9S8 15.062 8 15.062s7.8-4.123 7.8-10.162S9-1.139 8 2.312z"/></svg><svg width="16" height="15" viewBox="0 0 16 15" id="sprite-ico-like-mob-grey" x="460" y="112" xmlns="http://www.w3.org/2000/svg"><defs><style>.bhcls-1{fill:#ccc;fill-rule:evenodd}</style></defs><path class="bhcls-1" d="M8 2.312C7-1.139.2-1.139.2 4.9S8 15.062 8 15.062s7.8-4.123 7.8-10.162S9-1.139 8 2.312z"/></svg><svg width="16" height="15" viewBox="0 0 16 15" id="sprite-ico-like-mob-white" x="460" y="127" xmlns="http://www.w3.org/2000/svg"><defs><style>.bicls-1{fill:#fff;fill-rule:evenodd}</style></defs><path class="bicls-1" d="M8 2.312C7-1.139.2-1.139.2 4.9S8 15.062 8 15.062s7.8-4.123 7.8-10.162S9-1.139 8 2.312z"/></svg><svg width="16" height="15" viewBox="0 0 16 15" id="sprite-ico-like-mob-yellow" x="460" y="82" xmlns="http://www.w3.org/2000/svg"><defs><style>.bjcls-1{fill:#ffb600;fill-rule:evenodd}</style></defs><path class="bjcls-1" d="M8 2.312C7-1.139.2-1.139.2 4.9S8 15.062 8 15.062s7.8-4.123 7.8-10.162S9-1.139 8 2.312z"/></svg><svg width="22" height="21" viewBox="0 0 22 21" id="sprite-ico-like-tab-deepgrey" x="478" y="330.17999999999995" xmlns="http://www.w3.org/2000/svg"><defs><style>.bkcls-1{fill:#666;fill-rule:evenodd}</style></defs><path class="bkcls-1" d="M11.012 3.3C9.576-1.475-.221-1.475-.221 6.882s11.233 14.06 11.233 14.06 11.231-5.7 11.231-14.06S12.449-1.475 11.012 3.3z"/></svg><svg width="22" height="21" viewBox="0 0 22 21" id="sprite-ico-like-tab-grey" x="478" y="309.17999999999995" xmlns="http://www.w3.org/2000/svg"><defs><style>.blcls-1{fill:#ccc;fill-rule:evenodd}</style></defs><path class="blcls-1" d="M11.012 3.3C9.576-1.475-.221-1.475-.221 6.882s11.233 14.06 11.233 14.06 11.231-5.7 11.231-14.06S12.449-1.475 11.012 3.3z"/></svg><svg width="22" height="21" viewBox="0 0 22 21" id="sprite-ico-like-tab-white" x="478" y="408.17999999999995" xmlns="http://www.w3.org/2000/svg"><defs><style>.bmcls-1{fill:#fff;fill-rule:evenodd}</style></defs><path class="bmcls-1" d="M11.012 3.3C9.576-1.475-.221-1.475-.221 6.882s11.233 14.06 11.233 14.06 11.231-5.7 11.231-14.06S12.449-1.475 11.012 3.3z"/></svg><svg width="22" height="21" viewBox="0 0 22 21" id="sprite-ico-like-tab-yellow" x="478" y="387.17999999999995" xmlns="http://www.w3.org/2000/svg"><defs><style>.bncls-1{fill:#ffb600;fill-rule:evenodd}</style></defs><path class="bncls-1" d="M11.012 3.3C9.576-1.475-.221-1.475-.221 6.882s11.233 14.06 11.233 14.06 11.231-5.7 11.231-14.06S12.449-1.475 11.012 3.3z"/></svg><svg id="sprite-ico-lock-desk-closed" data-name="Слой 1" width="90" height="90" viewBox="0 0 90 90" x="252" xmlns="http://www.w3.org/2000/svg"><defs><style>.bocls-1{fill:#666}</style></defs><title>Безымянный-1</title><path class="bocls-1" d="M58 40.24v-6a13 13 0 0 0-26 0v6c-2 3-4.12 6.92-4.12 11.23a17.1 17.1 0 0 0 34.21 0c0-4.31-2.09-8.23-4.09-11.23zM45 25.52a9 9 0 0 1 9 8.77v2.61a19.06 19.06 0 0 0-9-2.45 19.06 19.06 0 0 0-9 2.45v-2.62a9 9 0 0 1 9-8.76zm1.56 26.43l.72 7.05h-4.56l.72-7.05a3.18 3.18 0 0 1-1.79-2.85 3.35 3.35 0 0 1 6.7 0 3.22 3.22 0 0 1-1.79 2.85z"/></svg><svg id="sprite-ico-lock-desk-opened" data-name="Слой 1" width="90" height="90" viewBox="0 0 90 90" x="252" y="90" xmlns="http://www.w3.org/2000/svg"><defs><style>.bpcls-1{fill:#ffb600}</style></defs><title>Безымянный-1</title><path class="bpcls-1" d="M57.77 40.26l1.6-2.73a12.76 12.76 0 1 0-22-12.89l-3.23 5.52 3.46 2 3.23-5.52a8.75 8.75 0 1 1 15.11 8.84l-1.18 2a17.12 17.12 0 1 0 3.01 2.78zM46.56 51.95l.72 7.05h-4.56l.72-7.05a3.18 3.18 0 0 1-1.79-2.85 3.35 3.35 0 0 1 6.7 0 3.22 3.22 0 0 1-1.79 2.85z"/></svg><svg id="sprite-ico-lock-mob-closed" data-name="Слой 1" width="80" height="80" viewBox="0 0 80 80" y="226" xmlns="http://www.w3.org/2000/svg"><defs><style>.bqcls-1{fill:#666}</style></defs><title>Безымянный-1</title><path class="bqcls-1" d="M51.5 35.67v-5.42a11.5 11.5 0 1 0-23 0v5.42c-3 2.73-3.91 6.3-3.91 10.22a15.42 15.42 0 1 0 30.84 0c0-3.89-.93-7.49-3.93-10.22zM40 22.27c4.39 0 7.5 3.58 7.5 8v2.37a13 13 0 0 0-7.5-2.25 13 13 0 0 0-7.5 2.23v-2.37c0-4.4 3.11-7.98 7.5-7.98zm1.42 24.43l.66 6.8h-4.15l.66-6.8A3.19 3.19 0 0 1 37 43.92a3.05 3.05 0 1 1 6.1 0 3.16 3.16 0 0 1-1.68 2.78z"/></svg><svg width="18" height="25" viewBox="0 0 18 25" id="sprite-ico-lock-mob-grey" x="460" xmlns="http://www.w3.org/2000/svg"><defs><style>.brcls-1{fill:#ccc;fill-rule:evenodd}</style></defs><path class="brcls-1" d="M17.84 15.859a8.84 8.84 0 1 1-15.47-5.838v-3.1a6.635 6.635 0 1 1 13.27 0v3.1a8.806 8.806 0 0 1 2.2 5.838zm-9.65.358l-.37 3.777h2.37l-.38-3.777a1.74 1.74 0 1 0-1.62 0zm5.36-9.295a4.55 4.55 0 1 0-9.1 0v1.356a8.762 8.762 0 0 1 9.1 0V6.922z"/></svg><svg id="sprite-ico-lock-mob-opened" data-name="Слой 1" width="80" height="80" viewBox="0 0 80 80" x="80" y="226" xmlns="http://www.w3.org/2000/svg"><defs><style>.bscls-1{fill:#ffb600}</style></defs><title>Безымянный-1</title><path class="bscls-1" d="M51.62 35.68l1.45-2.48A11.61 11.61 0 1 0 33 21.48l-2.94 5 3.15 1.84 2.94-5a8 8 0 1 1 13.75 8l-1.07 1.83a15.58 15.58 0 1 0 2.79 2.53zm-10.2 11l.66 6.8h-4.15l.66-6.8A3.19 3.19 0 0 1 37 43.92a3.05 3.05 0 1 1 6.1 0 3.16 3.16 0 0 1-1.68 2.78z"/></svg><svg width="18" height="25" viewBox="0 0 18 25" id="sprite-ico-lock-mob-yellow" x="460" y="25" xmlns="http://www.w3.org/2000/svg"><defs><style>.btcls-1{fill:#ffb600;fill-rule:evenodd}</style></defs><path class="btcls-1" d="M17.84 15.859a8.84 8.84 0 1 1-15.47-5.838v-3.1a6.635 6.635 0 1 1 13.27 0v3.1a8.806 8.806 0 0 1 2.2 5.838zm-9.65.358l-.37 3.777h2.37l-.38-3.777a1.74 1.74 0 1 0-1.62 0zm5.36-9.295a4.55 4.55 0 1 0-9.1 0v1.356a8.762 8.762 0 0 1 9.1 0V6.922z"/></svg><svg id="sprite-ico-lock-mob2-closed" data-name="Слой 1" width="126" height="126" viewBox="0 0 126 126" xmlns="http://www.w3.org/2000/svg"><defs><style>.bucls-1{fill:#666}</style></defs><title>Безымянный-1</title><path class="bucls-1" d="M80.5 56.31V48a17.5 17.5 0 1 0-35 0v8.31a22.47 22.47 0 0 0-6.12 15.75 23.64 23.64 0 1 0 47.28 0 22.51 22.51 0 0 0-6.16-15.75zM65.18 73.18l1 10.32h-6.37l1-10.32a4.8 4.8 0 0 1-2.5-4.18 4.69 4.69 0 1 1 6.87 4.18zM75.5 51.62a24.67 24.67 0 0 0-25 0V48a12.5 12.5 0 0 1 25 0v3.62z"/></svg><svg id="sprite-ico-lock-mob2-opened" data-name="Слой 1" width="126" height="126" viewBox="0 0 126 126" x="126" xmlns="http://www.w3.org/2000/svg"><defs><style>.bvcls-1{fill:#ffb600}</style></defs><title>Безымянный-1</title><path class="bvcls-1" d="M80.89 56.34l2.22-3.8a17.86 17.86 0 1 0-30.83-18l-4.52 7.73 4.84 2.83 4.52-7.73a12.25 12.25 0 1 1 21.15 12.34l-1.64 2.81a23.87 23.87 0 1 0 4.26 3.82zM65.18 73.18l1 10.32h-6.37l1-10.32a4.81 4.81 0 0 1-2.5-4.18 4.69 4.69 0 1 1 6.87 4.18z"/></svg><svg id="sprite-ico-lock-tab-closed" data-name="Слой 1" width="100" height="100" viewBox="0 0 100 100" y="126" xmlns="http://www.w3.org/2000/svg"><defs><style>.bwcls-1{fill:#666}</style></defs><title>Безымянный-1</title><path class="bwcls-1" d="M64 44.67V38a14 14 0 1 0-28 0v6.67a18.93 18.93 0 1 0 28 0zM50 28.18A10 10 0 0 1 60 38v2.92a19.59 19.59 0 0 0-20 0V38a10 10 0 0 1 10-9.82zm1.75 29.76l.8 8.06h-5.1l.81-8.06a3.69 3.69 0 0 1-2-3.27 3.75 3.75 0 0 1 7.51 0 3.7 3.7 0 0 1-2.02 3.27z"/></svg><svg width="28" height="38" viewBox="0 0 28 38" id="sprite-ico-lock-tab-grey" x="427" y="235" xmlns="http://www.w3.org/2000/svg"><defs><style>.bxcls-1{fill:#ccc;fill-rule:evenodd}</style></defs><path class="bxcls-1" d="M27.603 24.175a13.6 13.6 0 1 1-23.8-8.98v-4.77a10.206 10.206 0 1 1 20.412 0v4.77a13.555 13.555 0 0 1 3.388 8.98zm-14.847.55l-.576 5.81h3.645l-.576-5.81a2.681 2.681 0 1 0-2.493 0zm8.249-14.3a7 7 0 1 0-14 0v2.09a13.484 13.484 0 0 1 14 0v-2.09z"/></svg><svg id="sprite-ico-lock-tab-opened" data-name="Слой 1" width="100" height="100" viewBox="0 0 100 100" x="100" y="126" xmlns="http://www.w3.org/2000/svg"><defs><style>.bycls-1{fill:#ffb600}</style></defs><title>Безымянный-1</title><path class="bycls-1" d="M64.3 44.69l1.79-3.05A14.29 14.29 0 1 0 41.43 27.2l-3.62 6.18 3.87 2.27 3.62-6.18a9.8 9.8 0 1 1 16.92 9.9l-1.32 2.25a19.18 19.18 0 1 0 3.4 3.07zM51.75 57.94l.8 8.06h-5.1l.81-8.06a3.69 3.69 0 0 1-2-3.27 3.75 3.75 0 0 1 7.51 0 3.7 3.7 0 0 1-2.02 3.27z"/></svg><svg width="28" height="38" viewBox="0 0 28 38" id="sprite-ico-lock-tab-yellow" x="252" y="180" xmlns="http://www.w3.org/2000/svg"><defs><style>.bzcls-1{fill:#ffb600;fill-rule:evenodd}</style></defs><path class="bzcls-1" d="M27.603 24.175a13.6 13.6 0 1 1-23.8-8.98v-4.77a10.206 10.206 0 1 1 20.412 0v4.77a13.555 13.555 0 0 1 3.388 8.98zm-14.847.55l-.576 5.81h3.645l-.576-5.81a2.681 2.681 0 1 0-2.493 0zm8.249-14.3a7 7 0 1 0-14 0v2.09a13.484 13.484 0 0 1 14 0v-2.09z"/></svg><svg width="12" height="28" viewBox="0 0 12 28" id="sprite-ico-quote-info-mob-yellow" x="448" y="277" xmlns="http://www.w3.org/2000/svg"><defs><style>.cacls-1{fill:#ffb600;fill-rule:evenodd}</style></defs><path class="cacls-1" d="M11.055 4.835a2.711 2.711 0 0 1-2.019.95 2.228 2.228 0 0 1-1.643-.69 2.413 2.413 0 0 1-.644-1.71 3 3 0 0 1 .812-2.11 2.685 2.685 0 0 1 2.025-.91 2.264 2.264 0 0 1 1.654.67 2.324 2.324 0 0 1 .652 1.66 3.1 3.1 0 0 1-.837 2.14zm-2.18 4.35a1.821 1.821 0 0 1 .665 1.45c0 .24 0 .7-1.315 5.08a71.766 71.766 0 0 0-1.969 7.49c.413-.32 1.061-.85 2.059-1.79a.909.909 0 0 1 1.255.01l.767.75a.9.9 0 0 1 .275.65.88.88 0 0 1-.285.65 25.587 25.587 0 0 1-4.11 3.37 5.155 5.155 0 0 1-2.478.83 2.338 2.338 0 0 1-1.756-.72 2.569 2.569 0 0 1-.647-1.82c0-1.7.934-5.57 2.857-11.82-.306.26-.826.73-1.71 1.59a.9.9 0 0 1-1.188.07l-.867-.66a.93.93 0 0 1-.349-.64.916.916 0 0 1 .232-.69 16.1 16.1 0 0 1 3.814-3.25 6.744 6.744 0 0 1 3.209-1.03 2.357 2.357 0 0 1 1.541.48z"/></svg><svg width="19" height="42" viewBox="0 0 19 42" id="sprite-ico-quote-info-mob2-yellow" x="408" y="235" xmlns="http://www.w3.org/2000/svg"><defs><style>.cbcls-1{fill:#ffb600;fill-rule:evenodd}</style></defs><path class="cbcls-1" d="M17.3 6.86a4.148 4.148 0 0 1-3.106 1.47 3.405 3.405 0 0 1-2.527-1.07 3.684 3.684 0 0 1-.991-2.62 4.627 4.627 0 0 1 1.249-3.25 4.142 4.142 0 0 1 3.115-1.4 3.509 3.509 0 0 1 2.545 1.03 3.6 3.6 0 0 1 1 2.56A4.728 4.728 0 0 1 17.3 6.86zm-3.352 6.7a2.793 2.793 0 0 1 1.022 2.23c0 .37 0 1.07-2.023 7.82a111.688 111.688 0 0 0-3.03 11.51 40.269 40.269 0 0 0 3.168-2.74 1.4 1.4 0 0 1 1.931.01l1.181 1.15a1.4 1.4 0 0 1 .422 1.01 1.381 1.381 0 0 1-.439 1 39.963 39.963 0 0 1-6.322 5.18A7.931 7.931 0 0 1 6.045 42a3.576 3.576 0 0 1-2.7-1.11 3.925 3.925 0 0 1-1-2.79c0-2.62 1.438-8.57 4.4-18.18-.471.4-1.271 1.12-2.63 2.45a1.4 1.4 0 0 1-1.829.1L.953 21.45a1.411 1.411 0 0 1-.537-.98 1.393 1.393 0 0 1 .357-1.06 24.6 24.6 0 0 1 5.867-5 10.3 10.3 0 0 1 4.937-1.59 3.643 3.643 0 0 1 2.371.74z"/></svg><svg width="19" height="15" viewBox="0 0 19 15" id="sprite-ico-quote-mob-yellow" x="408" y="357" xmlns="http://www.w3.org/2000/svg"><defs><style>.cccls-1{fill:#ffb600;fill-rule:evenodd}</style></defs><path class="cccls-1" d="M14.845 7.512h-.34a3.6 3.6 0 0 1-2.52-1.038 3.4 3.4 0 0 1-1.11-2.589 3.228 3.228 0 0 1 1.11-2.518 4.029 4.029 0 0 1 2.76-.99 3.754 3.754 0 0 1 2.98 1.4 5.97 5.97 0 0 1 1.19 3.973 10.152 10.152 0 0 1-3.59 7.7 4.548 4.548 0 0 1-2.69 1.205 1.617 1.617 0 0 1-1.22-.453 1.592 1.592 0 0 1-.45-1.17 1.643 1.643 0 0 1 .96-1.551 6.641 6.641 0 0 0 2.06-1.623 4.048 4.048 0 0 0 .86-2.346zm-10.84 0h-.32a3.587 3.587 0 0 1-2.49-1.038 3.4 3.4 0 0 1-1.11-2.589 3.31 3.31 0 0 1 1.11-2.53A3.946 3.946 0 0 1 3.955.329a3.7 3.7 0 0 1 2.99 1.432 6.076 6.076 0 0 1 1.18 3.985 9.68 9.68 0 0 1-.61 3.461 10.453 10.453 0 0 1-1.58 2.828 8.733 8.733 0 0 1-2.09 1.909 3.85 3.85 0 0 1-2 .7 1.51 1.51 0 0 1-1.67-1.623 1.613 1.613 0 0 1 .96-1.551 6.421 6.421 0 0 0 2.04-1.635 4.587 4.587 0 0 0 .83-2.323z"/></svg><svg width="29" height="23" viewBox="0 0 29 23" id="sprite-ico-quote-tab-yellow" y="406" xmlns="http://www.w3.org/2000/svg"><defs><style>.cdcls-1{fill:#ffb600;fill-rule:evenodd}</style></defs><path class="cdcls-1" d="M22.737 11.53h-.528a5.514 5.514 0 0 1-3.867-1.6 5.2 5.2 0 0 1-1.717-3.98 4.929 4.929 0 0 1 1.717-3.87A6.146 6.146 0 0 1 22.586.55 5.782 5.782 0 0 1 27.17 2.7 9.154 9.154 0 0 1 29 8.81a15.627 15.627 0 0 1-5.527 11.84 6.966 6.966 0 0 1-4.131 1.86 2.533 2.533 0 0 1-1.887-.7 2.491 2.491 0 0 1-.679-1.8 2.537 2.537 0 0 1 1.471-2.39 10.272 10.272 0 0 0 3.17-2.49 6.245 6.245 0 0 0 1.32-3.6zm-16.675 0H5.57a5.47 5.47 0 0 1-3.828-1.6A5.2 5.2 0 0 1 .025 5.95a5.073 5.073 0 0 1 1.717-3.89A6 6 0 0 1 5.987.48a5.694 5.694 0 0 1 4.6 2.2 9.39 9.39 0 0 1 1.811 6.13 14.947 14.947 0 0 1-.944 5.33 15.875 15.875 0 0 1-2.433 4.35 13.2 13.2 0 0 1-3.207 2.93 5.879 5.879 0 0 1-3.075 1.09 2.547 2.547 0 0 1-1.905-.68 2.738 2.738 0 0 1 .811-4.21 9.8 9.8 0 0 0 3.132-2.51 6.931 6.931 0 0 0 1.285-3.58z"/></svg><svg width="26" height="26" viewBox="0 0 26 26" id="sprite-ico-reg-soc-fb-desk-color" x="52" y="429" xmlns="http://www.w3.org/2000/svg"><defs><style>.cecls-1{fill:#3b5998;fill-rule:evenodd}</style></defs><path id="ceico-reg-soc-fb-desk-color" class="cecls-1" d="M826.069 850h-21.351a1.325 1.325 0 0 0-1.325 1.324v21.351a1.325 1.325 0 0 0 1.325 1.325h10.6v-8.395h-3.127v-3.622h3.127v-2.671c0-3.1 1.894-4.788 4.659-4.788a25.657 25.657 0 0 1 2.8.143v3.239h-1.918c-1.5 0-1.8.715-1.8 1.763v2.313h3.587l-.467 3.622h-3.12V874h7.015a1.325 1.325 0 0 0 1.325-1.325v-21.351a1.325 1.325 0 0 0-1.33-1.324z" transform="translate(-802.406 -849)"/></svg><svg width="26" height="26" viewBox="0 0 26 26" id="sprite-ico-reg-soc-fb-desk-grey" x="208" y="429" xmlns="http://www.w3.org/2000/svg"><defs><style>.cfcls-1{fill:#666;fill-rule:evenodd}</style></defs><path id="cfico-reg-soc-fb-desk-grey" class="cfcls-1" d="M826.069 813h-21.351a1.325 1.325 0 0 0-1.325 1.324v21.351a1.325 1.325 0 0 0 1.325 1.325h10.6v-8.395h-3.127v-3.622h3.127v-2.671c0-3.1 1.894-4.788 4.659-4.788a25.657 25.657 0 0 1 2.8.143v3.239h-1.918c-1.5 0-1.8.715-1.8 1.763v2.313h3.587l-.467 3.622h-3.12V837h7.015a1.325 1.325 0 0 0 1.325-1.325v-21.351a1.325 1.325 0 0 0-1.33-1.324z" transform="translate(-802.406 -812)"/></svg><svg width="32" height="32" viewBox="0 0 32 32" id="sprite-ico-reg-soc-fb-mob-color" x="130" y="372" xmlns="http://www.w3.org/2000/svg"><defs><style>.cgcls-1{fill:#3b5998;fill-rule:evenodd}</style></defs><path id="cgfacebook" class="cgcls-1" d="M652.346 306.5h-26.684a1.655 1.655 0 0 0-1.656 1.656v26.688a1.656 1.656 0 0 0 1.656 1.656H638.9v-10.494H635v-4.527h3.9v-3.339c0-3.875 2.366-5.985 5.822-5.985a32.11 32.11 0 0 1 3.493.178v4.05h-2.4c-1.88 0-2.243.893-2.243 2.2v2.891h4.482l-.583 4.527h-3.9V336.5h8.767a1.657 1.657 0 0 0 1.662-1.656v-26.688a1.656 1.656 0 0 0-1.654-1.656z" transform="translate(-623 -305.5)"/></svg><svg width="32" height="32" viewBox="0 0 32 32" id="sprite-ico-reg-soc-fb-mob-grey" x="290" y="372" xmlns="http://www.w3.org/2000/svg"><defs><style>.chcls-1{fill:#666;fill-rule:evenodd}</style></defs><path id="chico-reg-soc-fb-mob-grey" class="chcls-1" d="M652.346 306.5h-26.684a1.655 1.655 0 0 0-1.656 1.656v26.688a1.656 1.656 0 0 0 1.656 1.656H638.9v-10.494H635v-4.527h3.9v-3.339c0-3.875 2.366-5.985 5.822-5.985a32.11 32.11 0 0 1 3.493.178v4.05h-2.4c-1.88 0-2.243.893-2.243 2.2v2.891h4.482l-.583 4.527h-3.9V336.5h8.767a1.657 1.657 0 0 0 1.662-1.656v-26.688a1.656 1.656 0 0 0-1.654-1.656z" transform="translate(-623 -305.5)"/></svg><svg width="66" height="66" viewBox="0 0 66 66" id="sprite-ico-reg-soc-fb-mobx-color" y="306" xmlns="http://www.w3.org/2000/svg"><defs><style>.cicls-1{fill:#3b5998;fill-rule:evenodd}</style></defs><path id="ciico-reg-soc-fb-mobx-color" class="cicls-1" d="M1287.72 499h-53.38a3.309 3.309 0 0 0-3.31 3.311v53.377a3.31 3.31 0 0 0 3.31 3.312h26.49v-20.987h-7.82v-9.055h7.82v-6.678c0-7.75 4.73-11.97 11.65-11.97a64.049 64.049 0 0 1 6.98.357v8.1h-4.79c-3.76 0-4.49 1.786-4.49 4.408v5.782h8.97l-1.17 9.055h-7.8V559h17.54a3.31 3.31 0 0 0 3.31-3.312v-53.377a3.309 3.309 0 0 0-3.31-3.311z" transform="translate(-1228.03 -496)"/></svg><svg width="66" height="66" viewBox="0 0 66 66" id="sprite-ico-reg-soc-fb-mobx-grey" x="66" y="306" xmlns="http://www.w3.org/2000/svg"><defs><style>.cjcls-1{fill:#666;fill-rule:evenodd}</style></defs><path id="cjico-reg-soc-fb-mobx-grey" class="cjcls-1" d="M1287.72 579h-53.38a3.309 3.309 0 0 0-3.31 3.311v53.377a3.31 3.31 0 0 0 3.31 3.312h26.49v-20.987h-7.82v-9.055h7.82v-6.678c0-7.75 4.73-11.97 11.65-11.97a64.049 64.049 0 0 1 6.98.357v8.1h-4.79c-3.76 0-4.49 1.786-4.49 4.408v5.782h8.97l-1.17 9.055h-7.8V639h17.54a3.31 3.31 0 0 0 3.31-3.312v-53.377a3.309 3.309 0 0 0-3.31-3.311z" transform="translate(-1228.03 -576)"/></svg><svg width="52" height="52" viewBox="0 0 52 52" id="sprite-ico-reg-soc-fb-tab-color" x="251" y="306" xmlns="http://www.w3.org/2000/svg"><defs><style>.ckcls-1{fill:#3b5998;fill-rule:evenodd}</style></defs><path id="ckico-reg-soc-fb-tab-color" class="ckcls-1" d="M1119.17 416h-42.7a2.652 2.652 0 0 0-2.65 2.649v42.7a2.652 2.652 0 0 0 2.65 2.649h21.19V447.21h-6.25v-7.244h6.25v-5.342c0-6.2 3.79-9.576 9.32-9.576a51.514 51.514 0 0 1 5.59.285v6.48h-3.84c-3.01 0-3.59 1.43-3.59 3.527v4.625h7.18l-.94 7.244h-6.24V464h14.03a2.645 2.645 0 0 0 2.65-2.649v-42.7a2.645 2.645 0 0 0-2.65-2.651z" transform="translate(-1071.81 -414)"/></svg><svg width="52" height="52" viewBox="0 0 52 52" id="sprite-ico-reg-soc-fb-tab-grey" x="408" y="156" xmlns="http://www.w3.org/2000/svg"><defs><style>.clcls-1{fill:#666;fill-rule:evenodd}</style></defs><path id="clico-reg-soc-fb-tab-grey" class="clcls-1" d="M1119.17 500h-42.7a2.652 2.652 0 0 0-2.65 2.649v42.7a2.652 2.652 0 0 0 2.65 2.649h21.19V531.21h-6.25v-7.244h6.25v-5.342c0-6.2 3.79-9.576 9.32-9.576a51.514 51.514 0 0 1 5.59.285v6.48h-3.84c-3.01 0-3.59 1.43-3.59 3.527v4.625h7.18l-.94 7.244h-6.24V548h14.03a2.645 2.645 0 0 0 2.65-2.649v-42.7a2.645 2.645 0 0 0-2.65-2.651z" transform="translate(-1071.81 -498)"/></svg><svg width="26" height="26" viewBox="0 0 26 26" id="sprite-ico-reg-soc-gp-desk-color" x="234" y="429" xmlns="http://www.w3.org/2000/svg"><defs><style>.cmcls-1{fill:#ea4335;fill-rule:evenodd}</style></defs><path id="cmico-reg-soc-gp-desk-color" class="cmcls-1" d="M911.992 850a12 12 0 1 0 12 12 12 12 0 0 0-12-12zm.848 15.792a4.613 4.613 0 0 1-3.528 1.684 5.2 5.2 0 0 1-1.807-.263 4.975 4.975 0 0 1-3.284-3.909 4.473 4.473 0 0 1-.051-.768 4.974 4.974 0 0 1 8.245-3.72c-.4.444-.816.884-1.254 1.294a6.191 6.191 0 0 0-.827-.424 2.9 2.9 0 0 0-2.1-.147 3.146 3.146 0 0 0-2.115 3.69 3.955 3.955 0 0 0 .5 1.115c.011.014.019.029.029.043.036.049.076.093.115.139s.056.072.087.105.05.048.074.072a3.038 3.038 0 0 0 .4.345c.047.034.1.064.147.1s.078.053.119.077a3.078 3.078 0 0 0 2.754.2 2.733 2.733 0 0 0 1.606-1.873c-.945-.019-1.891-.007-2.835-.034v-1.683c1.576 0 3.154-.008 4.733.006v.089a5.537 5.537 0 0 1-1.008 3.862zm6.9-2.552l-1.412.007c0 .472-.007.943-.009 1.416h-1.408c0-.473 0-.944-.01-1.414-.47 0-.943-.007-1.413-.009v-1.408l1.413-.009c0-.47.008-.942.012-1.413h1.406c0 .471.006.943.009 1.413.47 0 .942.007 1.412.009v1.408z" transform="translate(-899 -849)"/></svg><svg width="26" height="26" viewBox="0 0 26 26" id="sprite-ico-reg-soc-gp-desk-grey" x="130" y="429" xmlns="http://www.w3.org/2000/svg"><defs><style>.cncls-1{fill:#666;fill-rule:evenodd}</style></defs><path id="cnico-reg-soc-gp-desk-grey" class="cncls-1" d="M911.992 813a12 12 0 1 0 12 12 12 12 0 0 0-12-12zm.848 15.792a4.613 4.613 0 0 1-3.528 1.684 5.2 5.2 0 0 1-1.807-.263 4.975 4.975 0 0 1-3.284-3.909 4.473 4.473 0 0 1-.051-.768 4.974 4.974 0 0 1 8.245-3.72c-.4.444-.816.884-1.254 1.294a6.191 6.191 0 0 0-.827-.424 2.9 2.9 0 0 0-2.1-.147 3.146 3.146 0 0 0-2.115 3.69 3.955 3.955 0 0 0 .5 1.115c.011.014.019.029.029.043.036.049.076.093.115.139s.056.072.087.105.05.048.074.072a3.038 3.038 0 0 0 .4.345c.047.034.1.064.147.1s.078.053.119.077a3.078 3.078 0 0 0 2.754.2 2.733 2.733 0 0 0 1.606-1.873c-.945-.019-1.891-.007-2.835-.034v-1.683c1.576 0 3.154-.008 4.733.006v.089a5.537 5.537 0 0 1-1.008 3.862zm6.9-2.552l-1.412.007c0 .472-.007.943-.009 1.416h-1.408c0-.473 0-.944-.01-1.414-.47 0-.943-.007-1.413-.009v-1.408l1.413-.009c0-.47.008-.942.012-1.413h1.406c0 .471.006.943.009 1.413.47 0 .942.007 1.412.009v1.408z" transform="translate(-899 -812)"/></svg><svg width="32" height="32" viewBox="0 0 32 32" id="sprite-ico-reg-soc-gp-mob-color" x="162" y="372" xmlns="http://www.w3.org/2000/svg"><defs><style>.cocls-1{fill:#ea4335;fill-rule:evenodd}</style></defs><path id="cogoogle_" data-name="google+" class="cocls-1" d="M750.984 306.5a15 15 0 1 0 15 15 15 15 0 0 0-15-15zm1.06 19.74a5.76 5.76 0 0 1-4.409 2.105 6.5 6.5 0 0 1-2.258-.329 6.22 6.22 0 0 1-4.1-4.886 5.585 5.585 0 0 1-.063-.96 6.216 6.216 0 0 1 10.3-4.65 28.504 28.504 0 0 1-1.568 1.618 7.6 7.6 0 0 0-1.032-.53 3.631 3.631 0 0 0-2.623-.185 3.934 3.934 0 0 0-2.643 4.614 3.319 3.319 0 0 0 .119.379 3.442 3.442 0 0 0 .5 1.014c.013.017.023.037.036.054.045.061.1.116.144.174s.07.089.108.131.063.06.093.09a3.944 3.944 0 0 0 .5.432c.059.042.122.079.183.118s.1.066.149.1a3.839 3.839 0 0 0 3.441.247 3.415 3.415 0 0 0 2.008-2.341c-1.181-.023-2.363-.009-3.543-.042 0-.7-.006-1.4 0-2.1 1.97 0 3.943-.009 5.915.008l-.001.099a6.924 6.924 0 0 1-1.256 4.84zm8.623-3.19l-1.765.009c-.006.59-.009 1.178-.012 1.769h-1.76c-.006-.591-.006-1.179-.011-1.766-.587-.007-1.179-.009-1.766-.012v-1.76q.881 0 1.766-.011c0-.588.009-1.178.014-1.767h1.757c0 .589.008 1.179.012 1.767.587.006 1.178.009 1.765.011v1.76z" transform="translate(-734.985 -305.5)"/></svg><svg width="32" height="32" viewBox="0 0 32 32" id="sprite-ico-reg-soc-gp-mob-grey" x="322" y="372" xmlns="http://www.w3.org/2000/svg"><defs><style>.cpcls-1{fill:#666;fill-rule:evenodd}</style></defs><path id="cpico-reg-soc-gp-mob-grey" class="cpcls-1" d="M750.984 306.5a15 15 0 1 0 15 15 15 15 0 0 0-15-15zm1.06 19.74a5.76 5.76 0 0 1-4.409 2.105 6.5 6.5 0 0 1-2.258-.329 6.22 6.22 0 0 1-4.1-4.886 5.585 5.585 0 0 1-.063-.96 6.216 6.216 0 0 1 10.3-4.65 28.504 28.504 0 0 1-1.568 1.618 7.6 7.6 0 0 0-1.032-.53 3.631 3.631 0 0 0-2.623-.185 3.934 3.934 0 0 0-2.643 4.614 3.319 3.319 0 0 0 .119.379 3.442 3.442 0 0 0 .5 1.014c.013.017.023.037.036.054.045.061.1.116.144.174s.07.089.108.131.063.06.093.09a3.944 3.944 0 0 0 .5.432c.059.042.122.079.183.118s.1.066.149.1a3.839 3.839 0 0 0 3.441.247 3.415 3.415 0 0 0 2.008-2.341c-1.181-.023-2.363-.009-3.543-.042 0-.7-.006-1.4 0-2.1 1.97 0 3.943-.009 5.915.008l-.001.099a6.924 6.924 0 0 1-1.256 4.84zm8.623-3.19l-1.765.009c-.006.59-.009 1.178-.012 1.769h-1.76c-.006-.591-.006-1.179-.011-1.766-.587-.007-1.179-.009-1.766-.012v-1.76q.881 0 1.766-.011c0-.588.009-1.178.014-1.767h1.757c0 .589.008 1.179.012 1.767.587.006 1.178.009 1.765.011v1.76z" transform="translate(-734.985 -305.5)"/></svg><svg width="66" height="66" viewBox="0 0 66 66" id="sprite-ico-reg-soc-gp-mobx-color" x="132" y="306" xmlns="http://www.w3.org/2000/svg"><defs><style>.cqcls-1{fill:#ea4335;fill-rule:evenodd}</style></defs><path id="cqico-reg-soc-gp-mobx-color" class="cqcls-1" d="M1485.03 499a30 30 0 1 0 29.99 30 30 30 0 0 0-29.99-30zm2.12 39.479a11.529 11.529 0 0 1-8.82 4.21 12.959 12.959 0 0 1-4.52-.657 12.422 12.422 0 0 1-8.21-9.773 11.161 11.161 0 0 1-.13-1.919 12.433 12.433 0 0 1 20.61-9.3c-1.01 1.11-2.04 2.209-3.13 3.235a15.51 15.51 0 0 0-2.07-1.059 7.247 7.247 0 0 0-5.24-.369 7.867 7.867 0 0 0-5.29 9.226 5.323 5.323 0 0 0 .24.758 6.966 6.966 0 0 0 1 2.028.666.666 0 0 1 .07.109c.09.121.19.233.29.348.07.086.14.178.22.261.06.064.12.12.18.182a7.677 7.677 0 0 0 1 .862c.12.085.24.158.37.237.1.063.19.133.29.192a7.7 7.7 0 0 0 6.89.494 6.805 6.805 0 0 0 4.01-4.682c-2.36-.046-4.72-.018-7.08-.083-.01-1.4-.02-2.8-.01-4.209 3.94-.008 7.89-.018 11.83.016a1.665 1.665 0 0 1 .01.223c.21 3.377-.32 6.964-2.51 9.67zm17.24-6.379c-1.17.006-2.35.013-3.53.018-.01 1.181-.01 2.356-.02 3.538-1.17-.008-2.35 0-3.52 0-.01-1.182-.01-2.357-.02-3.532-1.18-.014-2.36-.018-3.53-.024v-3.52c1.17 0 2.35-.012 3.53-.023 0-1.175.02-2.355.03-3.533h3.51c.01 1.178.02 2.358.02 3.533 1.18.013 2.36.018 3.53.023v3.52z" transform="translate(-1452.03 -496)"/></svg><svg width="66" height="66" viewBox="0 0 66 66" id="sprite-ico-reg-soc-gp-mobx-grey" x="342" xmlns="http://www.w3.org/2000/svg"><defs><style>.crcls-1{fill:#666;fill-rule:evenodd}</style></defs><path id="crico-reg-soc-gp-mobx-grey" class="crcls-1" d="M1485.03 579a30 30 0 1 0 29.99 30 30 30 0 0 0-29.99-30zm2.12 39.479a11.529 11.529 0 0 1-8.82 4.21 12.959 12.959 0 0 1-4.52-.657 12.422 12.422 0 0 1-8.21-9.773 11.161 11.161 0 0 1-.13-1.919 12.433 12.433 0 0 1 20.61-9.3c-1.01 1.11-2.04 2.209-3.13 3.235a15.51 15.51 0 0 0-2.07-1.059 7.247 7.247 0 0 0-5.24-.369 7.867 7.867 0 0 0-5.29 9.226 5.323 5.323 0 0 0 .24.758 6.966 6.966 0 0 0 1 2.028.666.666 0 0 1 .07.109c.09.121.19.233.29.348.07.086.14.178.22.261.06.064.12.12.18.182a7.677 7.677 0 0 0 1 .862c.12.085.24.158.37.237.1.063.19.133.29.192a7.7 7.7 0 0 0 6.89.494 6.805 6.805 0 0 0 4.01-4.682c-2.36-.046-4.72-.018-7.08-.083-.01-1.4-.02-2.8-.01-4.209 3.94-.008 7.89-.018 11.83.016a1.665 1.665 0 0 1 .01.223c.21 3.377-.32 6.964-2.51 9.67zm17.24-6.379c-1.17.006-2.35.013-3.53.018-.01 1.181-.01 2.356-.02 3.538-1.17-.008-2.35 0-3.52 0-.01-1.182-.01-2.357-.02-3.532-1.18-.014-2.36-.018-3.53-.024v-3.52c1.17 0 2.35-.012 3.53-.023 0-1.175.02-2.355.03-3.533h3.51c.01 1.178.02 2.358.02 3.533 1.18.013 2.36.018 3.53.023v3.52z" transform="translate(-1452.03 -576)"/></svg><svg width="52" height="52" viewBox="0 0 52 52" id="sprite-ico-reg-soc-gp-tab-color" x="303" y="306" xmlns="http://www.w3.org/2000/svg"><defs><style>.cscls-1{fill:#ea4335;fill-rule:evenodd}</style></defs><path id="csico-reg-soc-gp-tab-color" class="cscls-1" d="M1277.02 416a24 24 0 1 0 24 24 24 24 0 0 0-24-24zm1.69 31.583a9.193 9.193 0 0 1-7.05 3.368 10.437 10.437 0 0 1-3.62-.525 9.943 9.943 0 0 1-6.56-7.819 8.728 8.728 0 0 1-.11-1.535 9.948 9.948 0 0 1 16.49-7.44c-.81.888-1.63 1.767-2.5 2.588a12.335 12.335 0 0 0-1.66-.847 5.8 5.8 0 0 0-4.19-.3 6.286 6.286 0 0 0-4.23 7.382 4.514 4.514 0 0 0 .19.606 5.3 5.3 0 0 0 .8 1.622c.02.029.04.06.06.087.07.1.15.187.23.279.06.069.11.142.17.209.05.051.1.1.15.145a6.114 6.114 0 0 0 .8.69c.09.068.19.127.29.189.08.051.16.106.24.154a6.147 6.147 0 0 0 5.51.395 5.482 5.482 0 0 0 3.21-3.745c-1.89-.037-3.78-.014-5.67-.067-.01-1.123-.01-2.243-.01-3.367 3.15-.006 6.31-.015 9.47.013a1.063 1.063 0 0 0 .01.178 11.063 11.063 0 0 1-2.02 7.74zm13.8-5.1l-2.82.015c-.01.944-.02 1.884-.02 2.83-.94-.006-1.88 0-2.82 0-.01-.946-.01-1.886-.02-2.826-.93-.011-1.88-.014-2.82-.019v-2.816q1.41-.006 2.82-.018l.03-2.826h2.81c0 .942.01 1.886.02 2.826.94.01 1.88.014 2.82.018v2.816z" transform="translate(-1251.03 -414)"/></svg><svg width="52" height="52" viewBox="0 0 52 52" id="sprite-ico-reg-soc-gp-tab-grey" x="355" y="306" xmlns="http://www.w3.org/2000/svg"><defs><style>.ctcls-1{fill:#666;fill-rule:evenodd}</style></defs><path id="ctico-reg-soc-gp-tab-grey" class="ctcls-1" d="M1277.02 500a24 24 0 1 0 24 24 24 24 0 0 0-24-24zm1.69 31.583a9.193 9.193 0 0 1-7.05 3.368 10.437 10.437 0 0 1-3.62-.525 9.943 9.943 0 0 1-6.56-7.819 8.728 8.728 0 0 1-.11-1.535 9.948 9.948 0 0 1 16.49-7.44c-.81.888-1.63 1.767-2.5 2.588a12.335 12.335 0 0 0-1.66-.847 5.8 5.8 0 0 0-4.19-.3 6.286 6.286 0 0 0-4.23 7.382 4.514 4.514 0 0 0 .19.606 5.3 5.3 0 0 0 .8 1.622c.02.029.04.06.06.087.07.1.15.187.23.279.06.069.11.142.17.209.05.051.1.1.15.145a6.114 6.114 0 0 0 .8.69c.09.068.19.127.29.189.08.051.16.106.24.154a6.147 6.147 0 0 0 5.51.395 5.482 5.482 0 0 0 3.21-3.745c-1.89-.037-3.78-.014-5.67-.067-.01-1.123-.01-2.243-.01-3.367 3.15-.006 6.31-.015 9.47.013a1.063 1.063 0 0 0 .01.178 11.063 11.063 0 0 1-2.02 7.74zm13.8-5.1l-2.82.015c-.01.944-.02 1.884-.02 2.83-.94-.006-1.88 0-2.82 0-.01-.946-.01-1.886-.02-2.826-.93-.011-1.88-.014-2.82-.019v-2.816q1.41-.006 2.82-.018l.03-2.826h2.81c0 .942.01 1.886.02 2.826.94.01 1.88.014 2.82.018v2.816z" transform="translate(-1251.03 -498)"/></svg><svg width="26" height="26" viewBox="0 0 26 26" id="sprite-ico-reg-soc-ok-desk-color" x="156" y="429" xmlns="http://www.w3.org/2000/svg"><defs><style>.cucls-1{fill:#ee8208;fill-rule:evenodd}</style></defs><path id="cuico-reg-soc-ok-desk-color" class="cucls-1" d="M863.785 854.19a2.395 2.395 0 1 1-2.509 2.393 2.456 2.456 0 0 1 2.509-2.393zm0 8.169a5.785 5.785 0 1 0-6.062-5.776 5.931 5.931 0 0 0 6.062 5.776m2.453 4.714a11.67 11.67 0 0 0 3.52-1.39 1.647 1.647 0 0 0 .557-2.334 1.827 1.827 0 0 0-2.447-.533 8.02 8.02 0 0 1-8.161 0 1.826 1.826 0 0 0-2.447.53 1.647 1.647 0 0 0 .557 2.334 11.654 11.654 0 0 0 3.519 1.39l-3.389 3.231a1.637 1.637 0 0 0 0 2.394 1.838 1.838 0 0 0 2.511 0l3.33-3.175 3.331 3.175a1.836 1.836 0 0 0 2.508 0 1.635 1.635 0 0 0 0-2.39l-3.388-3.231" transform="translate(-850.782 -849)"/></svg><svg width="26" height="26" viewBox="0 0 26 26" id="sprite-ico-reg-soc-ok-desk-grey" x="182" y="429" xmlns="http://www.w3.org/2000/svg"><defs><style>.cvcls-1{fill:#666;fill-rule:evenodd}</style></defs><path id="cvico-reg-soc-ok-desk-grey" class="cvcls-1" d="M863.785 817.19a2.395 2.395 0 1 1-2.509 2.393 2.456 2.456 0 0 1 2.509-2.393zm0 8.169a5.785 5.785 0 1 0-6.062-5.776 5.931 5.931 0 0 0 6.062 5.776m2.453 4.714a11.67 11.67 0 0 0 3.52-1.39 1.647 1.647 0 0 0 .557-2.334 1.827 1.827 0 0 0-2.447-.533 8.02 8.02 0 0 1-8.161 0 1.826 1.826 0 0 0-2.447.53 1.647 1.647 0 0 0 .557 2.334 11.654 11.654 0 0 0 3.519 1.39l-3.389 3.231a1.637 1.637 0 0 0 0 2.394 1.838 1.838 0 0 0 2.511 0l3.33-3.175 3.331 3.175a1.836 1.836 0 0 0 2.508 0 1.635 1.635 0 0 0 0-2.39l-3.388-3.231" transform="translate(-850.782 -812)"/></svg><svg width="32" height="32" viewBox="0 0 32 32" id="sprite-ico-reg-soc-ok-mob-color" x="258" y="372" xmlns="http://www.w3.org/2000/svg"><defs><style>.cwcls-1{fill:#ee8208;fill-rule:evenodd}</style></defs><path id="cwok" class="cwcls-1" d="M694.485 311.738a2.993 2.993 0 1 1-3.136 2.99 3.069 3.069 0 0 1 3.136-2.99zm0 10.211a7.23 7.23 0 1 0-7.576-7.221 7.412 7.412 0 0 0 7.576 7.221m3.065 5.892a14.568 14.568 0 0 0 4.4-1.737 2.057 2.057 0 0 0 .7-2.917 2.282 2.282 0 0 0-3.058-.667 10.018 10.018 0 0 1-10.2 0 2.282 2.282 0 0 0-3.058.662 2.058 2.058 0 0 0 .695 2.917 14.594 14.594 0 0 0 4.4 1.737l-4.235 4.039a2.047 2.047 0 0 0 0 2.993 2.3 2.3 0 0 0 3.139 0l4.161-3.968 4.164 3.969a2.3 2.3 0 0 0 3.134 0 2.044 2.044 0 0 0 0-2.988l-4.234-4.039" transform="translate(-678.485 -305.5)"/></svg><svg width="32" height="32" viewBox="0 0 32 32" id="sprite-ico-reg-soc-ok-mob-grey" x="226" y="372" xmlns="http://www.w3.org/2000/svg"><defs><style>.cxcls-1{fill:#666;fill-rule:evenodd}</style></defs><path id="cxico-reg-soc-ok-mob-grey" class="cxcls-1" d="M694.485 311.738a2.993 2.993 0 1 1-3.136 2.99 3.069 3.069 0 0 1 3.136-2.99zm0 10.211a7.23 7.23 0 1 0-7.576-7.221 7.412 7.412 0 0 0 7.576 7.221m3.065 5.892a14.568 14.568 0 0 0 4.4-1.737 2.057 2.057 0 0 0 .7-2.917 2.282 2.282 0 0 0-3.058-.667 10.018 10.018 0 0 1-10.2 0 2.282 2.282 0 0 0-3.058.662 2.058 2.058 0 0 0 .695 2.917 14.594 14.594 0 0 0 4.4 1.737l-4.235 4.039a2.047 2.047 0 0 0 0 2.993 2.3 2.3 0 0 0 3.139 0l4.161-3.968 4.164 3.969a2.3 2.3 0 0 0 3.134 0 2.044 2.044 0 0 0 0-2.988l-4.234-4.039" transform="translate(-678.485 -305.5)"/></svg><svg width="66" height="66" viewBox="0 0 66 66" id="sprite-ico-reg-soc-ok-mobx-color" x="342" y="198" xmlns="http://www.w3.org/2000/svg"><defs><style>.cycls-1{fill:#ee8208;fill-rule:evenodd}</style></defs><path id="cyico-reg-soc-ok-mobx-color" class="cycls-1" d="M1372.01 509.476a5.987 5.987 0 1 1-6.27 5.981 6.136 6.136 0 0 1 6.27-5.981zm0 20.422c8.36 0 15.15-6.477 15.15-14.441s-6.79-14.448-15.15-14.448-15.16 6.481-15.16 14.448 6.8 14.441 15.16 14.441m6.13 11.784a29.171 29.171 0 0 0 8.8-3.473 4.11 4.11 0 0 0 1.39-5.836 4.559 4.559 0 0 0-6.11-1.333h-.01a20.042 20.042 0 0 1-20.4 0 4.57 4.57 0 0 0-6.12 1.324v.006a4.11 4.11 0 0 0 1.39 5.836 29.2 29.2 0 0 0 8.8 3.473l-8.47 8.078a4.084 4.084 0 0 0 0 5.985 4.6 4.6 0 0 0 6.28 0l8.32-7.935 8.33 7.936a4.588 4.588 0 0 0 6.27 0 4.08 4.08 0 0 0 .01-5.975s0-.006-.01-.009l-8.47-8.079" transform="translate(-1339 -496)"/></svg><svg width="66" height="66" viewBox="0 0 66 66" id="sprite-ico-reg-soc-ok-mobx-grey" x="342" y="132" xmlns="http://www.w3.org/2000/svg"><defs><style>.czcls-1{fill:#666;fill-rule:evenodd}</style></defs><path id="czico-reg-soc-ok-mobx-grey" class="czcls-1" d="M1372.01 589.476a5.987 5.987 0 1 1-6.27 5.981 6.136 6.136 0 0 1 6.27-5.981zm0 20.422c8.36 0 15.15-6.477 15.15-14.441s-6.79-14.448-15.15-14.448-15.16 6.481-15.16 14.448 6.8 14.441 15.16 14.441m6.13 11.784a29.171 29.171 0 0 0 8.8-3.473 4.11 4.11 0 0 0 1.39-5.836 4.559 4.559 0 0 0-6.11-1.333h-.01a20.042 20.042 0 0 1-20.4 0 4.57 4.57 0 0 0-6.12 1.324v.006a4.11 4.11 0 0 0 1.39 5.836 29.2 29.2 0 0 0 8.8 3.473l-8.47 8.078a4.084 4.084 0 0 0 0 5.985 4.6 4.6 0 0 0 6.28 0l8.32-7.935 8.33 7.936a4.588 4.588 0 0 0 6.27 0 4.08 4.08 0 0 0 .01-5.975s0-.006-.01-.009l-8.47-8.079" transform="translate(-1339 -576)"/></svg><svg width="52" height="52" viewBox="0 0 52 52" id="sprite-ico-reg-soc-ok-tab-color" x="408" y="52" xmlns="http://www.w3.org/2000/svg"><defs><style>.dacls-1{fill:#ee8208;fill-rule:evenodd}</style></defs><path id="daico-reg-soc-ok-tab-color" class="dacls-1" d="M1186.61 424.38a4.79 4.79 0 1 1-5.02 4.786 4.909 4.909 0 0 1 5.02-4.786zm0 16.339c6.68 0 12.12-5.182 12.12-11.553s-5.44-11.559-12.12-11.559-12.13 5.185-12.13 11.559 5.44 11.553 12.13 11.553m4.9 9.427a23.421 23.421 0 0 0 7.04-2.779 3.289 3.289 0 0 0 1.11-4.669 3.649 3.649 0 0 0-4.89-1.066 16.05 16.05 0 0 1-16.33 0 3.648 3.648 0 0 0-4.89 1.06 3.289 3.289 0 0 0 1.11 4.669 23.343 23.343 0 0 0 7.04 2.779l-6.78 6.462a3.27 3.27 0 0 0 0 4.788 3.684 3.684 0 0 0 5.03 0l6.65-6.349 6.67 6.349a3.663 3.663 0 0 0 5.01 0h.01a3.269 3.269 0 0 0 0-4.78v-.007l-6.78-6.463" transform="translate(-1160.61 -414)"/></svg><svg width="52" height="52" viewBox="0 0 52 52" id="sprite-ico-reg-soc-ok-tab-grey" x="200" y="126" xmlns="http://www.w3.org/2000/svg"><defs><style>.dbcls-1{fill:#666;fill-rule:evenodd}</style></defs><path id="dbico-reg-soc-ok-tab-grey" class="dbcls-1" d="M1186.61 508.38a4.79 4.79 0 1 1-5.02 4.786 4.909 4.909 0 0 1 5.02-4.786zm0 16.339c6.68 0 12.12-5.182 12.12-11.553s-5.44-11.559-12.12-11.559-12.13 5.185-12.13 11.559 5.44 11.553 12.13 11.553m4.9 9.427a23.421 23.421 0 0 0 7.04-2.779 3.289 3.289 0 0 0 1.11-4.669 3.649 3.649 0 0 0-4.89-1.066 16.05 16.05 0 0 1-16.33 0 3.648 3.648 0 0 0-4.89 1.06 3.289 3.289 0 0 0 1.11 4.669 23.343 23.343 0 0 0 7.04 2.779l-6.78 6.462a3.27 3.27 0 0 0 0 4.788 3.684 3.684 0 0 0 5.03 0l6.65-6.349 6.67 6.349a3.663 3.663 0 0 0 5.01 0h.01a3.269 3.269 0 0 0 0-4.78v-.007l-6.78-6.463" transform="translate(-1160.61 -498)"/></svg><svg width="26" height="26" viewBox="0 0 26 26" id="sprite-ico-reg-soc-vk-desk-color" x="104" y="429" xmlns="http://www.w3.org/2000/svg"><defs><style>.dccls-1{fill:#4a76a8;fill-rule:evenodd}</style></defs><path id="dcico-reg-soc-vk-desk-color" class="dccls-1" d="M776.572 864.966a10.96 10.96 0 0 1 2.519 2.786c.841 1.333-.932 1.46-.932 1.46h-3.387a2.378 2.378 0 0 1-1.687-.467c-1.267-.832-2.462-2.994-3.392-2.712s-.915 2.253-.915 2.253a.7.7 0 0 1-.208.473.817.817 0 0 1-.693.125h-1.516a8.406 8.406 0 0 1-6.291-2.6c-3.215-3.2-6.051-9.513-6.051-9.513a.634.634 0 0 1 .014-.576 1.21 1.21 0 0 1 .743-.221l3.627.009a1.665 1.665 0 0 1 .584.231 1.1 1.1 0 0 1 .315.41 22.121 22.121 0 0 0 1.361 2.726c1.514 2.5 2.219 3.05 2.735 2.782.747-.391.522-3.537.522-3.537a3.385 3.385 0 0 0-.376-1.649 1.741 1.741 0 0 0-1.125-.542c-.2-.026.13-.478.563-.682a8.6 8.6 0 0 1 3.166-.311 6.883 6.883 0 0 1 1.78.171c1.251.288.826 1.4.826 4.075 0 .855-.161 2.059.485 2.459.277.172.958.025 2.655-2.732a20.3 20.3 0 0 0 1.409-2.873 1.012 1.012 0 0 1 .337-.42.967.967 0 0 1 .493-.1h3.822s1.138-.086 1.323.408c.195.52-.428 1.731-1.986 3.717-2.56 3.269-2.844 2.965-.72 4.85z" transform="translate(-753.625 -849.328)"/></svg><svg width="26" height="26" viewBox="0 0 26 26" id="sprite-ico-reg-soc-vk-desk-grey" x="78" y="429" xmlns="http://www.w3.org/2000/svg"><defs><style>.ddcls-1{fill:#666;fill-rule:evenodd}</style></defs><path id="ddico-reg-soc-vk-desk-grey" class="ddcls-1" d="M776.572 827.966a10.96 10.96 0 0 1 2.519 2.786c.841 1.333-.932 1.46-.932 1.46h-3.387a2.378 2.378 0 0 1-1.687-.467c-1.267-.832-2.462-2.994-3.392-2.712s-.915 2.253-.915 2.253a.7.7 0 0 1-.208.473.817.817 0 0 1-.693.125h-1.516a8.406 8.406 0 0 1-6.291-2.6c-3.215-3.2-6.051-9.513-6.051-9.513a.634.634 0 0 1 .014-.576 1.21 1.21 0 0 1 .743-.221l3.627.009a1.665 1.665 0 0 1 .584.231 1.1 1.1 0 0 1 .315.41 22.121 22.121 0 0 0 1.361 2.726c1.514 2.5 2.219 3.05 2.735 2.782.747-.391.522-3.537.522-3.537a3.385 3.385 0 0 0-.376-1.649 1.741 1.741 0 0 0-1.125-.542c-.2-.026.13-.478.563-.682a8.6 8.6 0 0 1 3.166-.311 6.883 6.883 0 0 1 1.78.171c1.251.288.826 1.4.826 4.075 0 .855-.161 2.059.485 2.459.277.172.958.025 2.655-2.732a20.3 20.3 0 0 0 1.409-2.873 1.012 1.012 0 0 1 .337-.42.967.967 0 0 1 .493-.1h3.822s1.138-.086 1.323.408c.195.52-.428 1.731-1.986 3.717-2.56 3.269-2.844 2.965-.72 4.85z" transform="translate(-753.625 -812.328)"/></svg><svg width="32" height="32" viewBox="0 0 32 32" id="sprite-ico-reg-soc-vk-mob-color" x="194" y="372" xmlns="http://www.w3.org/2000/svg"><defs><style>.decls-1{fill:#4a76a8;fill-rule:evenodd}</style></defs><path id="devk" class="decls-1" d="M594.234 325.208a13.707 13.707 0 0 1 3.149 3.483c1.05 1.665-1.166 1.824-1.166 1.824h-4.233a2.971 2.971 0 0 1-2.108-.585c-1.583-1.038-3.077-3.741-4.24-3.39-1.181.36-1.143 2.817-1.143 2.817a.88.88 0 0 1-.261.591 1.016 1.016 0 0 1-.865.157h-1.894a10.51 10.51 0 0 1-7.863-3.248c-4.018-4-7.563-11.891-7.563-11.891a.791.791 0 0 1 .018-.72 1.514 1.514 0 0 1 .928-.276l4.533.011a2.084 2.084 0 0 1 .73.289 1.353 1.353 0 0 1 .393.512 27.746 27.746 0 0 0 1.7 3.407c1.893 3.127 2.774 3.813 3.419 3.478.934-.489.652-4.421.652-4.421a4.237 4.237 0 0 0-.469-2.062 2.176 2.176 0 0 0-1.407-.677c-.255-.032.163-.6.7-.853a10.762 10.762 0 0 1 3.957-.387 8.624 8.624 0 0 1 2.225.212c1.563.36 1.032 1.753 1.032 5.1 0 1.068-.2 2.574.607 3.074.345.214 1.2.031 3.317-3.416a25.392 25.392 0 0 0 1.761-3.591 1.275 1.275 0 0 1 .421-.526 1.21 1.21 0 0 1 .616-.117h4.777s1.422-.108 1.654.51c.243.649-.535 2.163-2.483 4.646-3.194 4.072-3.549 3.692-.894 6.049z" transform="translate(-565.829 -305.89)"/></svg><svg width="32" height="32" viewBox="0 0 32 32" id="sprite-ico-reg-soc-vk-mob-grey" x="354" y="372" xmlns="http://www.w3.org/2000/svg"><defs><style>.dfcls-1{fill:#666;fill-rule:evenodd}</style></defs><path id="dfico-reg-soc-vk-mob-grey" class="dfcls-1" d="M594.234 325.208a13.707 13.707 0 0 1 3.149 3.483c1.05 1.665-1.166 1.824-1.166 1.824h-4.233a2.971 2.971 0 0 1-2.108-.585c-1.583-1.038-3.077-3.741-4.24-3.39-1.181.36-1.143 2.817-1.143 2.817a.88.88 0 0 1-.261.591 1.016 1.016 0 0 1-.865.157h-1.894a10.51 10.51 0 0 1-7.863-3.248c-4.018-4-7.563-11.891-7.563-11.891a.791.791 0 0 1 .018-.72 1.514 1.514 0 0 1 .928-.276l4.533.011a2.084 2.084 0 0 1 .73.289 1.353 1.353 0 0 1 .393.512 27.746 27.746 0 0 0 1.7 3.407c1.893 3.127 2.774 3.813 3.419 3.478.934-.489.652-4.421.652-4.421a4.237 4.237 0 0 0-.469-2.062 2.176 2.176 0 0 0-1.407-.677c-.255-.032.163-.6.7-.853a10.762 10.762 0 0 1 3.957-.387 8.624 8.624 0 0 1 2.225.212c1.563.36 1.032 1.753 1.032 5.1 0 1.068-.2 2.574.607 3.074.345.214 1.2.031 3.317-3.416a25.392 25.392 0 0 0 1.761-3.591 1.275 1.275 0 0 1 .421-.526 1.21 1.21 0 0 1 .616-.117h4.777s1.422-.108 1.654.51c.243.649-.535 2.163-2.483 4.646-3.194 4.072-3.549 3.692-.894 6.049z" transform="translate(-565.829 -305.89)"/></svg><svg width="66" height="66" viewBox="0 0 66 66" id="sprite-ico-reg-soc-vk-mobx-color" x="226" y="226" xmlns="http://www.w3.org/2000/svg"><defs><style>.dgcls-1{fill:#4a76a8;fill-rule:evenodd}</style></defs><path id="dgico-reg-soc-vk-mobx-color" class="dgcls-1" d="M1171.48 536.415c5.07 4.5 6.12 6.692 6.3 6.966 2.1 3.331-2.34 3.649-2.34 3.649h-8.46a5.945 5.945 0 0 1-4.22-1.168c-3.17-2.078-6.15-7.483-8.48-6.78-2.36.718-2.29 5.633-2.29 5.633a1.752 1.752 0 0 1-.52 1.182 2.032 2.032 0 0 1-1.73.314h-3.79s-8.36.839-15.73-6.5c-8.04-7.994-15.13-23.783-15.13-23.783a1.6 1.6 0 0 1 .04-1.439 3.041 3.041 0 0 1 1.86-.552l9.06.021a4.18 4.18 0 0 1 1.46.579 2.667 2.667 0 0 1 .79 1.023 56.435 56.435 0 0 0 3.4 6.816c3.79 6.253 5.55 7.624 6.84 6.955 1.87-.978 1.31-8.842 1.31-8.842s.03-2.855-.94-4.123a4.374 4.374 0 0 0-2.82-1.355c-.51-.065.33-1.2 1.41-1.706 1.63-.762 4.51-.807 7.92-.775a17.364 17.364 0 0 1 4.45.425c3.12.72 2.06 3.506 2.06 10.189 0 2.136-.4 5.148 1.22 6.148.69.429 2.39.062 6.63-6.831a50.963 50.963 0 0 0 3.52-7.182 2.555 2.555 0 0 1 .85-1.051 2.4 2.4 0 0 1 1.23-.236l9.55.007s2.85-.216 3.31 1.02c.49 1.3-1.07 4.327-4.96 9.291-6.4 8.153-7.11 7.39-1.8 12.105z" transform="translate(-1113.64 -496.813)"/></svg><svg width="66" height="66" viewBox="0 0 66 66" id="sprite-ico-reg-soc-vk-mobx-grey" x="160" y="226" xmlns="http://www.w3.org/2000/svg"><defs><style>.dhcls-1{fill:#666;fill-rule:evenodd}</style></defs><path id="dhico-reg-soc-vk-mobx-grey" class="dhcls-1" d="M1171.48 616.415c5.07 4.5 6.12 6.692 6.3 6.966 2.1 3.331-2.34 3.649-2.34 3.649h-8.46a5.945 5.945 0 0 1-4.22-1.168c-3.17-2.078-6.15-7.483-8.48-6.78-2.36.718-2.29 5.633-2.29 5.633a1.752 1.752 0 0 1-.52 1.182 2.032 2.032 0 0 1-1.73.314h-3.79s-8.36.839-15.73-6.5c-8.04-7.994-15.13-23.783-15.13-23.783a1.6 1.6 0 0 1 .04-1.439 3.041 3.041 0 0 1 1.86-.552l9.06.021a4.18 4.18 0 0 1 1.46.579 2.667 2.667 0 0 1 .79 1.023 56.435 56.435 0 0 0 3.4 6.816c3.79 6.253 5.55 7.624 6.84 6.955 1.87-.978 1.31-8.842 1.31-8.842s.03-2.855-.94-4.123a4.374 4.374 0 0 0-2.82-1.355c-.51-.065.33-1.2 1.41-1.706 1.63-.762 4.51-.807 7.92-.775a17.364 17.364 0 0 1 4.45.425c3.12.72 2.06 3.506 2.06 10.189 0 2.136-.4 5.148 1.22 6.148.69.429 2.39.062 6.63-6.831a50.963 50.963 0 0 0 3.52-7.182 2.555 2.555 0 0 1 .85-1.051 2.4 2.4 0 0 1 1.23-.236l9.55.007s2.85-.216 3.31 1.02c.49 1.3-1.07 4.327-4.96 9.291-6.4 8.153-7.11 7.39-1.8 12.105z" transform="translate(-1113.64 -576.813)"/></svg><svg width="52" height="52" viewBox="0 0 52 52" id="sprite-ico-reg-soc-vk-tab-color" x="408" y="104" xmlns="http://www.w3.org/2000/svg"><defs><style>.dicls-1{fill:#4a76a8;fill-rule:evenodd}</style></defs><path id="diico-reg-soc-vk-tab-color" class="dicls-1" d="M1026.18 445.932c4.06 3.6 4.9 5.353 5.04 5.573 1.68 2.664-1.87 2.919-1.87 2.919h-6.77a4.771 4.771 0 0 1-3.38-.934c-2.53-1.663-4.92-5.987-6.78-5.425-1.89.575-1.83 4.507-1.83 4.507a1.374 1.374 0 0 1-.42.946 1.615 1.615 0 0 1-1.38.25h-3.03a16.817 16.817 0 0 1-12.585-5.2c-6.43-6.395-12.1-19.026-12.1-19.026a1.261 1.261 0 0 1 .029-1.151 2.418 2.418 0 0 1 1.485-.442l7.254.017a3.334 3.334 0 0 1 1.168.463 2.168 2.168 0 0 1 .629.818 44.548 44.548 0 0 0 2.723 5.453c3.029 5 4.439 6.1 5.47 5.564 1.49-.783 1.04-7.073 1.04-7.073a6.765 6.765 0 0 0-.75-3.3 3.472 3.472 0 0 0-2.248-1.084c-.408-.052.261-.957 1.126-1.364 1.3-.611 3.612-.646 6.332-.621a13.87 13.87 0 0 1 3.56.34c2.5.577 1.65 2.805 1.65 8.151 0 1.709-.32 4.119.97 4.919.56.343 1.92.05 5.31-5.465a40.786 40.786 0 0 0 2.82-5.746 2.043 2.043 0 0 1 .67-.841 1.95 1.95 0 0 1 .99-.188l7.64.006s2.28-.173 2.65.815c.39 1.039-.86 3.462-3.97 7.433-5.123 6.524-5.693 5.915-1.443 9.686z" transform="translate(-980.299 -414.625)"/></svg><svg width="52" height="52" viewBox="0 0 52 52" id="sprite-ico-reg-soc-vk-tab-grey" x="408" xmlns="http://www.w3.org/2000/svg"><defs><style>.djcls-1{fill:#666;fill-rule:evenodd}</style></defs><path id="djico-reg-soc-vk-tab-grey" class="djcls-1" d="M1026.18 529.932c4.06 3.6 4.9 5.353 5.04 5.573 1.68 2.664-1.87 2.919-1.87 2.919h-6.77a4.771 4.771 0 0 1-3.38-.934c-2.53-1.663-4.92-5.987-6.78-5.425-1.89.575-1.83 4.507-1.83 4.507a1.374 1.374 0 0 1-.42.946 1.615 1.615 0 0 1-1.38.25h-3.03a16.817 16.817 0 0 1-12.585-5.2c-6.43-6.395-12.1-19.026-12.1-19.026a1.261 1.261 0 0 1 .029-1.151 2.418 2.418 0 0 1 1.485-.442l7.254.017a3.334 3.334 0 0 1 1.168.463 2.168 2.168 0 0 1 .629.818 44.548 44.548 0 0 0 2.723 5.453c3.029 5 4.439 6.1 5.47 5.564 1.49-.783 1.04-7.073 1.04-7.073a6.765 6.765 0 0 0-.75-3.3 3.472 3.472 0 0 0-2.248-1.084c-.408-.052.261-.957 1.126-1.364 1.3-.611 3.612-.646 6.332-.621a13.87 13.87 0 0 1 3.56.34c2.5.577 1.65 2.8 1.65 8.151 0 1.709-.32 4.119.97 4.919.56.343 1.92.05 5.31-5.465a40.786 40.786 0 0 0 2.82-5.746 2.043 2.043 0 0 1 .67-.841 1.95 1.95 0 0 1 .99-.188l7.64.006s2.28-.173 2.65.815c.39 1.039-.86 3.462-3.97 7.433-5.123 6.524-5.693 5.915-1.443 9.686z" transform="translate(-980.299 -498.625)"/></svg><svg width="15" height="15" viewBox="0 0 15 15" id="sprite-ico-search-desk-grey" x="460" y="142" xmlns="http://www.w3.org/2000/svg"><defs><style>.dkcls-1{fill:#ccc;fill-rule:evenodd}</style></defs><path class="dkcls-1" d="M14.37 12.87l-3.28-3.215a5.728 5.728 0 0 0-.63-7.481 6.026 6.026 0 0 0-8.4 0 5.744 5.744 0 0 0 0 8.237 6.022 6.022 0 0 0 7.64.625l3.27 3.207a1.013 1.013 0 0 0 .7.285.979.979 0 0 0 .7-.285.952.952 0 0 0 0-1.373zM3.46 9.038a3.823 3.823 0 0 1 0-5.491 4.016 4.016 0 0 1 5.6 0 3.823 3.823 0 0 1 0 5.491 4.016 4.016 0 0 1-5.6 0z"/></svg><svg width="25" height="24" viewBox="0 0 25 24" id="sprite-ico-search-header-desk-grey-close" x="310" y="429" xmlns="http://www.w3.org/2000/svg"><defs><style>.dlcls-1{fill:#666;fill-rule:evenodd}</style></defs><path id="dlRounded_Rectangle_2_copy_3" data-name="Rounded Rectangle 2 copy 3" class="dlcls-1" d="M1378.13 121.2l-6.6 6.6 5.9 5.9a1.956 1.956 0 0 1-2.77 2.762l-5.89-5.9-6.07 6.071a2 2 0 1 1-2.83-2.829l6.07-6.071-6.4-6.4a1.956 1.956 0 1 1 2.77-2.763l6.39 6.4 6.6-6.6a2 2 0 1 1 2.83 2.83z" transform="translate(-1356.345 -115.516)"/></svg><svg width="25" height="25" viewBox="0 0 25 25" id="sprite-ico-search-header-mob-grey" x="478" y="50" xmlns="http://www.w3.org/2000/svg"><defs><style>.dmcls-1{fill:#666;fill-rule:evenodd}</style></defs><path class="dmcls-1" d="M24.227 24.145a1.316 1.316 0 0 1-1.85 0l-5.638-5.6a10.21 10.21 0 0 1-13.381-.852 10.167 10.167 0 1 1 15.231-.983l5.638 5.6a1.293 1.293 0 0 1 0 1.835zM15.881 5.264a7.52 7.52 0 1 0 0 10.6 7.455 7.455 0 0 0 0-10.6z"/></svg><svg width="25" height="25" viewBox="0 0 25 25" id="sprite-ico-search-header-mob-grey-close" x="478" y="25" xmlns="http://www.w3.org/2000/svg"><defs><style>.dncls-1{fill:#666;fill-rule:evenodd}</style></defs><path class="dncls-1" d="M14.23 12.49l7.169 7.133a1.307 1.307 0 0 1-1.853 1.844l-7.054-7.018-7.054 7.018a1.307 1.307 0 0 1-1.854-1.844l7.17-7.133-7.17-7.133a1.3 1.3 0 0 1 0-1.845 1.316 1.316 0 0 1 1.854 0l7.054 7.018 7.054-7.018a1.315 1.315 0 0 1 1.853 0 1.3 1.3 0 0 1 0 1.845z"/></svg><svg width="25" height="25" viewBox="0 0 25 25" id="sprite-ico-search-header-mob-yellow" x="478" xmlns="http://www.w3.org/2000/svg"><defs><style>.docls-1{fill:#ffb600;fill-rule:evenodd}</style></defs><path class="docls-1" d="M24.227 24.145a1.316 1.316 0 0 1-1.85 0l-5.638-5.6a10.21 10.21 0 0 1-13.381-.852 10.167 10.167 0 1 1 15.231-.983l5.638 5.6a1.293 1.293 0 0 1 0 1.835zM15.881 5.264a7.52 7.52 0 1 0 0 10.6 7.455 7.455 0 0 0 0-10.6z"/></svg><svg width="40" height="40" viewBox="0 0 40 40" id="sprite-ico-search-header-tab-grey" x="408" y="277" xmlns="http://www.w3.org/2000/svg"><defs><style>.dpcls-1{fill:#666;fill-rule:evenodd}</style></defs><path class="dpcls-1" d="M38.032 37.916a2.022 2.022 0 0 1-2.845 0l-8.673-8.609A15.712 15.712 0 0 1 5.927 28a15.641 15.641 0 1 1 23.433-1.513l8.672 8.609a1.986 1.986 0 0 1 0 2.82zM25.19 8.869a11.569 11.569 0 1 0 0 16.3 11.468 11.468 0 0 0 0-16.3z"/></svg><svg width="40" height="40" viewBox="0 0 40 40" id="sprite-ico-search-header-tab-grey-close" x="408" y="317" xmlns="http://www.w3.org/2000/svg"><defs><style>.dqcls-1{fill:#666;fill-rule:evenodd}</style></defs><path class="dqcls-1" d="M22.66 19.977l11.03 10.975a2.01 2.01 0 0 1-2.85 2.836l-10.85-10.8-10.85 10.8a2.014 2.014 0 0 1-2.86-2.836l11.03-10.975L6.28 9.003a2.012 2.012 0 0 1 0-2.837 2.033 2.033 0 0 1 2.86 0l10.85 10.8 10.85-10.8a2.021 2.021 0 0 1 2.85 0 1.994 1.994 0 0 1 0 2.837z"/></svg><svg width="40" height="40" viewBox="0 0 40 40" id="sprite-ico-search-header-tab-yellow" x="342" y="264" xmlns="http://www.w3.org/2000/svg"><defs><style>.drcls-1{fill:#ffb600;fill-rule:evenodd}</style></defs><path class="drcls-1" d="M38.032 37.916a2.022 2.022 0 0 1-2.845 0l-8.673-8.609A15.712 15.712 0 0 1 5.927 28a15.641 15.641 0 1 1 23.433-1.513l8.672 8.609a1.986 1.986 0 0 1 0 2.82zM25.19 8.869a11.569 11.569 0 1 0 0 16.3 11.468 11.468 0 0 0 0-16.3z"/></svg><svg width="17" height="16" viewBox="0 0 17 16" id="sprite-ico-search-mob-grey" x="460" y="50" xmlns="http://www.w3.org/2000/svg"><defs><style>.dscls-1{fill:#ccc;fill-rule:evenodd}</style></defs><path class="dscls-1" d="M16.22 13.957l-3.69-3.568a6.294 6.294 0 0 0-.7-8.3 6.846 6.846 0 0 0-9.45 0 6.309 6.309 0 0 0 0 9.136 6.839 6.839 0 0 0 8.59.695l3.68 3.557a1.128 1.128 0 0 0 .79.315 1.1 1.1 0 0 0 .78-.315 1.042 1.042 0 0 0 0-1.52zM3.95 9.705a4.224 4.224 0 0 1 0-6.092 4.565 4.565 0 0 1 6.3 0 4.207 4.207 0 0 1 0 6.092 4.565 4.565 0 0 1-6.3 0z"/></svg><svg width="17" height="16" viewBox="0 0 17 16" id="sprite-ico-search-mob-yellow" x="460" y="66" xmlns="http://www.w3.org/2000/svg"><defs><style>.dtcls-1{fill:#ffb600;fill-rule:evenodd}</style></defs><path class="dtcls-1" d="M16.22 13.957l-3.69-3.568a6.294 6.294 0 0 0-.7-8.3 6.846 6.846 0 0 0-9.45 0 6.309 6.309 0 0 0 0 9.136 6.839 6.839 0 0 0 8.59.695l3.68 3.557a1.128 1.128 0 0 0 .79.315 1.1 1.1 0 0 0 .78-.315 1.042 1.042 0 0 0 0-1.52zM3.95 9.705a4.224 4.224 0 0 1 0-6.092 4.565 4.565 0 0 1 6.3 0 4.207 4.207 0 0 1 0 6.092 4.565 4.565 0 0 1-6.3 0z"/></svg><svg width="25" height="24" viewBox="0 0 25 24" id="sprite-ico-search-tab-grey" x="285" y="429" xmlns="http://www.w3.org/2000/svg"><defs><style>.ducls-1{fill:#ccc;fill-rule:evenodd}</style></defs><path class="ducls-1" d="M24.401 21.16l-5.677-5.49A9.693 9.693 0 0 0 17.636 2.9a10.534 10.534 0 0 0-14.538 0 9.728 9.728 0 0 0 0 14.06 10.537 10.537 0 0 0 13.219 1.07l5.66 5.47a1.77 1.77 0 0 0 2.424 0 1.617 1.617 0 0 0 0-2.34zM5.522 14.61a6.477 6.477 0 0 1 0-9.37 7.024 7.024 0 0 1 9.693 0 6.482 6.482 0 0 1 0 9.37 7 7 0 0 1-9.693 0z"/></svg><svg width="25" height="24" viewBox="0 0 25 24" id="sprite-ico-search-tab-yellow" x="260" y="429" xmlns="http://www.w3.org/2000/svg"><defs><style>.dvcls-1{fill:#ffb600;fill-rule:evenodd}</style></defs><path class="dvcls-1" d="M24.401 21.16l-5.677-5.49A9.693 9.693 0 0 0 17.636 2.9a10.534 10.534 0 0 0-14.538 0 9.728 9.728 0 0 0 0 14.06 10.537 10.537 0 0 0 13.219 1.07l5.66 5.47a1.77 1.77 0 0 0 2.424 0 1.617 1.617 0 0 0 0-2.34zM5.522 14.61a6.477 6.477 0 0 1 0-9.37 7.024 7.024 0 0 1 9.693 0 6.482 6.482 0 0 1 0 9.37 7 7 0 0 1-9.693 0z"/></svg><svg width="34" height="34" viewBox="0 0 34 34" id="sprite-ico-soc-ig-desk-grey" x="29" y="372" xmlns="http://www.w3.org/2000/svg"><defs><style>.dwcls-1{fill:#666;fill-rule:evenodd}</style></defs><path class="dwcls-1" d="M16 0h2a16 16 0 0 1 16 16v2a16 16 0 0 1-16 16h-2A16 16 0 0 1 0 18v-2A16 16 0 0 1 16 0zm.058 1h1.883A15.058 15.058 0 0 1 33 16.06v1.88A15.058 15.058 0 0 1 17.941 33h-1.883A15.058 15.058 0 0 1 1 17.94v-1.88A15.058 15.058 0 0 1 16.058 1zm1.145 11.38a4.63 4.63 0 1 0 4.633 4.63 4.631 4.631 0 0 0-4.636-4.63zm0 7.27a2.645 2.645 0 1 1 2.644-2.64 2.648 2.648 0 0 1-2.647 2.64zm4.587-8.48a1.25 1.25 0 1 0 1.251 1.25 1.252 1.252 0 0 0-1.251-1.25zm4.174 2.29a6.559 6.559 0 0 0-.414-2.16 4.475 4.475 0 0 0-1.041-1.6 4.534 4.534 0 0 0-1.6-1.04 6.805 6.805 0 0 0-2.156-.41c-.921-.04-1.227-.05-3.552-.05s-2.63.01-3.552.05a6.816 6.816 0 0 0-2.156.41 4.539 4.539 0 0 0-1.6 1.04 4.475 4.475 0 0 0-1.041 1.6 6.559 6.559 0 0 0-.414 2.16c-.042.92-.052 1.23-.052 3.55s.01 2.62.052 3.55a6.5 6.5 0 0 0 .414 2.15 4.612 4.612 0 0 0 2.637 2.64 6.3 6.3 0 0 0 2.156.41c.922.05 1.227.06 3.552.06s2.631-.01 3.552-.06a6.291 6.291 0 0 0 2.156-.41 4.61 4.61 0 0 0 2.638-2.64 6.5 6.5 0 0 0 .414-2.15c.041-.91.051-1.22.051-3.55s-.003-2.64-.044-3.55zm-1.987 7.01a4.46 4.46 0 0 1-.281 1.52 2.4 2.4 0 0 1-.593.91 2.529 2.529 0 0 1-.913.6 4.671 4.671 0 0 1-1.525.28c-.907.04-1.178.05-3.462.05s-2.554-.01-3.462-.05a4.67 4.67 0 0 1-1.524-.28 2.521 2.521 0 0 1-.913-.6 2.4 2.4 0 0 1-.592-.91 4.467 4.467 0 0 1-.281-1.52c-.041-.9-.049-1.17-.049-3.46s.008-2.56.049-3.46a4.542 4.542 0 0 1 .281-1.53 2.477 2.477 0 0 1 .592-.91 2.375 2.375 0 0 1 .913-.59 4.6 4.6 0 0 1 1.524-.29c.908-.04 1.18-.04 3.462-.04s2.555 0 3.462.04a4.6 4.6 0 0 1 1.525.29 2.383 2.383 0 0 1 .913.59 2.479 2.479 0 0 1 .593.91 4.594 4.594 0 0 1 .281 1.53c.041.9.05 1.16.05 3.46s-.009 2.56-.05 3.46z"/></svg><svg width="24" height="24" viewBox="0 0 24 24" id="sprite-ico-soc-ig-mob-grey" x="478" y="171" xmlns="http://www.w3.org/2000/svg"><defs><style>.dxcls-1{fill:#666;fill-rule:evenodd}</style></defs><path class="dxcls-1" d="M23.395 16.615a8.349 8.349 0 0 1-.54 2.8 5.588 5.588 0 0 1-1.35 2.07 5.655 5.655 0 0 1-2.07 1.36 8.622 8.622 0 0 1-2.81.53c-1.19.06-1.59.07-4.61.07s-3.42-.01-4.62-.07a8.56 8.56 0 0 1-2.8-.53 5.778 5.778 0 0 1-2.08-1.36 5.631 5.631 0 0 1-1.35-2.07 8.349 8.349 0 0 1-.54-2.8c-.06-1.21-.07-1.61-.07-4.62s.01-3.41.07-4.62a8.3 8.3 0 0 1 .54-2.8 5.753 5.753 0 0 1 1.35-2.08 5.886 5.886 0 0 1 2.08-1.35 8.551 8.551 0 0 1 2.8-.54c1.2-.05 1.59-.06 4.62-.06s3.42.01 4.61.06a8.613 8.613 0 0 1 2.81.54 5.759 5.759 0 0 1 2.07 1.35 5.625 5.625 0 0 1 1.35 2.08 8.3 8.3 0 0 1 .54 2.8c.06 1.19.07 1.58.07 4.62s-.01 3.43-.07 4.62zm-2.58-9.12a5.751 5.751 0 0 0-.37-1.98 3.136 3.136 0 0 0-.77-1.19 3.221 3.221 0 0 0-1.18-.77 6.088 6.088 0 0 0-1.99-.37c-1.17-.05-1.53-.06-4.5-.06s-3.32.01-4.5.06a6.072 6.072 0 0 0-1.98.37 3.221 3.221 0 0 0-1.18.77 3.061 3.061 0 0 0-.77 1.19 5.751 5.751 0 0 0-.37 1.98c-.05 1.17-.06 1.52-.06 4.5s.01 3.33.06 4.5a5.809 5.809 0 0 0 .37 1.98 3.4 3.4 0 0 0 1.95 1.96 5.878 5.878 0 0 0 1.98.36c1.18.06 1.54.07 4.5.07s3.33-.01 4.5-.07a5.9 5.9 0 0 0 1.99-.36 3.4 3.4 0 0 0 1.95-1.96 5.751 5.751 0 0 0 .37-1.98c.05-1.17.06-1.52.06-4.5s-.01-3.33-.06-4.5zm-2.84.16a1.625 1.625 0 1 1 1.62-1.62 1.628 1.628 0 0 1-1.62 1.62zm-5.97 10.36a6.02 6.02 0 1 1 6.03-6.02 6.026 6.026 0 0 1-6.03 6.02zm0-9.46a3.435 3.435 0 1 0 3.44 3.44 3.438 3.438 0 0 0-3.44-3.44z"/></svg><svg width="36" height="36" viewBox="0 0 36 36" id="sprite-ico-soc-ig-tab-grey" x="200" y="178" xmlns="http://www.w3.org/2000/svg"><defs><style>.dycls-1{fill:#666;fill-rule:evenodd}</style></defs><path class="dycls-1" d="M35.523 25.1a13.159 13.159 0 0 1-.829 4.31 9.236 9.236 0 0 1-5.275 5.27 13.067 13.067 0 0 1-4.312.83c-1.841.08-2.455.1-7.1.1s-5.261-.02-7.105-.1a13.077 13.077 0 0 1-4.311-.83 9.238 9.238 0 0 1-5.274-5.27 13.159 13.159 0 0 1-.829-4.31c-.084-1.86-.1-2.47-.1-7.11s.02-5.25.1-7.1a13.107 13.107 0 0 1 .829-4.31 9.238 9.238 0 0 1 5.274-5.27 13.077 13.077 0 0 1 4.311-.83c1.844-.08 2.455-.1 7.105-.1s5.263.02 7.1.1a13.067 13.067 0 0 1 4.312.83 9.236 9.236 0 0 1 5.275 5.27 13.107 13.107 0 0 1 .829 4.31c.081 1.83.1 2.43.1 7.1s-.019 5.28-.1 7.11zm-3.976-14.03a9.075 9.075 0 0 0-.56-3.05 5.272 5.272 0 0 0-3.012-3.01 9.075 9.075 0 0 0-3.05-.56c-1.814-.08-2.356-.1-6.924-.1s-5.108.02-6.924.1a9.085 9.085 0 0 0-3.049.56 5.256 5.256 0 0 0-3.009 3.01 9.086 9.086 0 0 0-.563 3.05c-.081 1.8-.1 2.34-.1 6.92s.017 5.13.1 6.93a9.086 9.086 0 0 0 .563 3.05 4.964 4.964 0 0 0 1.183 1.82 5.026 5.026 0 0 0 1.826 1.19 9.353 9.353 0 0 0 3.049.56c1.816.08 2.359.1 6.924.1s5.11-.02 6.924-.1a9.342 9.342 0 0 0 3.05-.56 4.917 4.917 0 0 0 1.826-1.19 5.042 5.042 0 0 0 1.186-1.82 9.134 9.134 0 0 0 .56-3.05c.084-1.8.1-2.34.1-6.93s-.016-5.12-.1-6.92zm-4.373.26a2.505 2.505 0 1 1 2.5-2.51 2.512 2.512 0 0 1-2.5 2.51zm-9.173 15.93a9.265 9.265 0 1 1 9.265-9.27 9.278 9.278 0 0 1-9.265 9.27zm0-14.55a5.285 5.285 0 1 0 5.288 5.28 5.29 5.29 0 0 0-5.288-5.28z"/></svg><svg width="34" height="34" viewBox="0 0 34 34" id="sprite-ico-soc-vk-desk-grey" x="63" y="372" xmlns="http://www.w3.org/2000/svg"><defs><style>.dzcls-1{fill:#666;fill-rule:evenodd}</style></defs><path id="dzRectangle_1088_копия" data-name="Rectangle 1088 копия" class="dzcls-1" d="M605.7 2084.25a7.81 7.81 0 0 1 1.75 1.93c.583.93-.648 1.02-.648 1.02l-2.352-.01a1.612 1.612 0 0 1-1.171-.32c-.88-.58-1.71-2.08-2.356-1.88s-.635 1.56-.635 1.56a.487.487 0 0 1-.145.33.562.562 0 0 1-.481.09h-1.053a5.846 5.846 0 0 1-4.369-1.81 27.143 27.143 0 0 1-4.2-6.6.44.44 0 0 1 .01-.4.839.839 0 0 1 .516-.16l2.519.01a1.135 1.135 0 0 1 .405.16.772.772 0 0 1 .219.28 15.245 15.245 0 0 0 .945 1.9c1.052 1.73 1.541 2.11 1.9 1.93.519-.27.363-2.46.363-2.46a2.328 2.328 0 0 0-.261-1.14 1.175 1.175 0 0 0-.781-.38c-.142-.02.09-.33.39-.47a5.977 5.977 0 0 1 2.2-.22 4.648 4.648 0 0 1 1.236.12c.869.2.574.97.574 2.83 0 .59-.112 1.43.337 1.71.192.12.665.02 1.843-1.9a14.249 14.249 0 0 0 .978-1.99.767.767 0 0 1 .235-.3.675.675 0 0 1 .342-.06h2.654a1.094 1.094 0 0 1 .919.28c.135.36-.3 1.21-1.379 2.58-1.782 2.27-1.979 2.06-.504 3.37zM600 2098h-2a16 16 0 0 1-16-16v-2a16 16 0 0 1 16-16h2a16 16 0 0 1 16 16v2a16 16 0 0 1-16 16zm15-17.94a15.058 15.058 0 0 0-15.059-15.06h-1.883A15.058 15.058 0 0 0 583 2080.06v1.88a15.058 15.058 0 0 0 15.058 15.06h1.883A15.058 15.058 0 0 0 615 2081.94v-1.88z" transform="translate(-582 -2064)"/></svg><svg width="24" height="24" viewBox="0 0 24 24" id="sprite-ico-soc-vk-mob-grey" x="478" y="123" xmlns="http://www.w3.org/2000/svg"><defs><style>.eacls-1{fill:#666;fill-rule:evenodd}</style></defs><path class="eacls-1" d="M20.965 14.39a9.8 9.8 0 0 1 2.27 2.52c.76 1.2-.84 1.31-.84 1.31h-3.05a2.144 2.144 0 0 1-1.53-.42c-1.14-.75-2.22-2.7-3.06-2.45s-.83 2.04-.83 2.04a.621.621 0 0 1-.18.42.752.752 0 0 1-.63.12h-1.37a7.6 7.6 0 0 1-5.68-2.35c-2.9-2.89-5.46-8.59-5.46-8.59a.569.569 0 0 1 .01-.52 1.122 1.122 0 0 1 .67-.2l3.28.01a1.407 1.407 0 0 1 .52.21.949.949 0 0 1 .29.37 20.333 20.333 0 0 0 1.23 2.46c1.36 2.26 2 2.75 2.47 2.51.67-.35.47-3.19.47-3.19a3.093 3.093 0 0 0-.34-1.49 1.556 1.556 0 0 0-1.02-.49c-.18-.02.12-.43.51-.61a7.506 7.506 0 0 1 2.86-.28 5.684 5.684 0 0 1 1.61.15c1.13.26.74 1.26.74 3.68 0 .77-.14 1.86.44 2.22.25.15.86.02 2.4-2.47a19.081 19.081 0 0 0 1.27-2.59.917.917 0 0 1 .3-.38.9.9 0 0 1 .45-.09l3.45.01s1.03-.08 1.19.36c.18.47-.38 1.57-1.79 3.36-2.31 2.94-2.57 2.67-.65 4.37z"/></svg><svg width="35.25" height="36" viewBox="0 0 35.25 36" id="sprite-ico-soc-vk-tab-grey" x="280" y="180" xmlns="http://www.w3.org/2000/svg"><defs><style>.ebcls-1{fill:#666;fill-rule:evenodd}</style></defs><path class="ebcls-1" d="M31.431 21.675a15.462 15.462 0 0 1 3.5 3.87c1.167 1.85-1.3 2.03-1.3 2.03h-4.7a3.331 3.331 0 0 1-2.343-.65c-1.76-1.16-3.42-4.16-4.712-3.77-1.313.4-1.27 3.13-1.27 3.13a.99.99 0 0 1-.29.66 1.145 1.145 0 0 1-.962.17h-2.1a11.658 11.658 0 0 1-8.738-3.61c-4.465-4.44-8.4-13.21-8.4-13.21a.877.877 0 0 1 .02-.8 1.684 1.684 0 0 1 1.031-.3l5.038.01a2.279 2.279 0 0 1 .811.32 1.545 1.545 0 0 1 .437.57 30.982 30.982 0 0 0 1.89 3.78c2.1 3.48 3.083 4.24 3.8 3.87 1.038-.55.725-4.91.725-4.91a4.738 4.738 0 0 0-.522-2.3 2.477 2.477 0 0 0-1.563-.75c-.283-.03.181-.66.782-.94a11.951 11.951 0 0 1 4.4-.44 9.78 9.78 0 0 1 2.472.24c1.737.4 1.147 1.95 1.147 5.66 0 1.19-.223 2.86.674 3.42.385.23 1.33.03 3.687-3.8a28.4 28.4 0 0 0 1.957-3.99 1.39 1.39 0 0 1 .469-.58 1.291 1.291 0 0 1 .684-.13h5.308s1.581-.12 1.838.57c.271.72-.6 2.4-2.759 5.16-3.566 4.53-3.961 4.11-1.011 6.72z"/></svg></svg>