<svg xmlns="http://www.w3.org/2000/svg" width="30" height="30" viewBox="0 0 30 30">
    <path
            fill="#FFB600"
            d="M1255.744,3989.913a12.967,12.967,0,0,1,2.98,3.3c.994,1.575-1.1,1.727-1.1,1.727l-4.005,0a2.808,2.808,0,0,1-1.995-.552c-1.5-.984-2.912-3.54-4.012-3.208-1.118.339-1.082,2.665-1.082,2.665a.832.832,0,0,1-.247.559.964.964,0,0,1-.819.148h-1.793a9.945,9.945,0,0,1-7.44-3.073c-3.8-3.782-7.156-11.25-7.156-11.25s-.193-.443.017-.68c.235-.267.879-.261.879-.261l4.289.01a1.985,1.985,0,0,1,.691.274,1.3,1.3,0,0,1,.372.484,26.271,26.271,0,0,0,1.609,3.224c1.791,2.958,2.625,3.606,3.235,3.29.884-.462.617-4.182.617-4.182a4.005,4.005,0,0,0-.444-1.951,2.062,2.062,0,0,0-1.331-.64c-.241-.031.154-.566.666-.807a10.156,10.156,0,0,1,3.744-.367,8.139,8.139,0,0,1,2.106.2c1.478.341.977,1.658.977,4.82,0,1.01-.191,2.435.574,2.908.327.2,1.132.029,3.139-3.231a23.99,23.99,0,0,0,1.666-3.4,1.205,1.205,0,0,1,.4-.5,1.146,1.146,0,0,1,.583-.111l4.52,0s1.346-.1,1.565.482c.23.615-.506,2.048-2.349,4.4C1253.568,3988.044,1253.232,3987.684,1255.744,3989.913Z"
            transform="translate(-1228.991 -3972)"
    />
</svg>
