<!-- Generator: Adobe Illustrator 22.1.0, SVG Export Plug-In  -->
<svg version="1.1"
	 xmlns="http://www.w3.org/2000/svg" xmlns:xlink="http://www.w3.org/1999/xlink" xmlns:a="http://ns.adobe.com/AdobeSVGViewerExtensions/3.0/"
	 x="0px" y="0px" width="24px" height="24px" viewBox="0 0 24 24" style="enable-background:new 0 0 24 24;" xml:space="preserve">
<style type="text/css">
	.st0{fill:#895858;}
</style>
<defs>
</defs>
<circle class="st0" cx="12" cy="12" r="12"/>
<path d="M17.7,11.6L8.4,7.1C8.3,7,8.1,7,8,7.1C7.8,7.2,7.8,7.4,7.8,7.6L9.3,12l-1.5,4.4c-0.1,0.2,0,0.3,0.1,0.5C8,16.9,8.1,17,8.2,17c0.1,0,0.1,0,0.2,0l9.3-4.5c0.1-0.1,0.2-0.2,0.2-0.4S17.9,11.7,17.7,11.6z M9,8.3l6.7,3.3h-5.6L9,8.3zM10.1,12.4h5.6L9,15.7L10.1,12.4z"/>
</svg>
