<svg xmlns="http://www.w3.org/2000/svg" width="28" height="15" viewBox="0 0 28 15"><g><g><path fill="#fff" d="M24.577 10.171c2.16 1.918 2.608 2.85 2.682 2.966.894 1.418-.993 1.554-.993 1.554l-3.604-.002s-.776.172-1.796-.497c-1.348-.886-2.62-3.187-3.61-2.887-1.006.305-.974 2.398-.974 2.398s.008.269-.222.503c-.249.257-.737.134-.737.134h-1.614s-3.56.357-6.696-2.766C3.592 8.171.573 1.449.573 1.449S.398 1.05.587.836c.212-.24.79-.235.79-.235l3.86.009s.363.064.622.246c.215.152.335.436.335.436s.624 1.538 1.45 2.902c1.611 2.662 2.361 3.246 2.91 2.96.796-.415.556-3.764.556-3.764s.015-1.214-.4-1.755c-.322-.42-.93-.542-1.198-.576-.217-.029.14-.51.6-.727.694-.325 1.92-.343 3.37-.33 1.128.012 1.453.08 1.894.18 1.33.308.88 1.494.88 4.339 0 .91-.172 2.192.516 2.618.294.182 1.018.026 2.825-2.909.857-1.392 1.5-3.058 1.5-3.058s.138-.322.359-.447c.222-.128.524-.1.524-.1l4.068.002s1.211-.091 1.409.434c.207.554-.456 1.843-2.115 3.957-2.724 3.47-3.027 3.147-.766 5.153z"/></g></g></svg>